ply
format ascii 1.0
element vertex 764
property float x
property float y
property float z
property uchar red
property uchar green
property uchar blue
end_header
1.426448 -0.181910 0.0 255 255 255
0.573638 -0.052114 0.0 255 0 0
0.569956 -0.048311 0.0 255 0 0
0.568278 -0.044275 0.0 255 0 0
0.566536 -0.040753 0.0 255 0 0
0.564766 -0.037361 0.0 255 0 0
0.560988 -0.033709 0.0 255 0 0
0.559173 -0.030427 0.0 255 0 0
0.557377 -0.026364 0.0 255 0 0
0.559500 -0.023670 0.0 255 0 0
0.559624 -0.020505 0.0 255 0 0
0.557752 -0.016636 0.0 255 0 0
0.555843 -0.013219 0.0 255 0 0
0.553913 -0.009825 0.0 255 0 0
0.555959 -0.006716 0.0 255 0 0
0.557990 -0.003371 0.0 255 0 0
0.558000 0.000000 0.0 255 0 0
0.555991 0.003145 0.0 255 0 0
0.555962 0.006503 0.0 255 0 0
0.555915 0.009702 0.0 255 0 0
0.557847 0.013052 0.0 255 0 0
0.559776 0.015836 0.0 255 0 0
0.563668 0.019355 0.0 255 0 0
0.565546 0.022676 0.0 255 0 0
0.563403 0.025946 0.0 255 0 0
0.563236 0.029348 0.0 255 0 0
0.561061 0.032472 0.0 255 0 0
0.560858 0.035807 0.0 255 0 0
0.560632 0.039193 0.0 255 0 0
0.562395 0.042515 0.0 255 0 0
0.566115 0.046237 0.0 255 0 0
0.569867 0.049349 0.0 255 255 255
0.573557 0.052994 0.0 0 0 255
0.577207 0.056850 0.0 0 0 255
0.576859 0.060280 0.0 0 0 255
0.580479 0.064036 0.0 0 0 255
0.596112 0.068191 0.0 0 0 255
0.605639 0.072813 0.0 0 0 255
0.611229 0.076518 0.0 0 0 255
1.401966 0.212636 0.0 255 255 255
1.402717 0.220874 0.0 255 255 255
1.401358 0.229340 0.0 255 255 255
1.399947 0.237801 0.0 255 255 255
1.400549 0.246062 0.0 255 255 255
1.399037 0.254518 0.0 255 255 255
1.399515 0.262931 0.0 255 255 255
1.399891 0.271625 0.0 255 255 255
1.452096 0.681346 0.0 255 255 255
0.373167 0.205482 0.0 255 255 255
0.376122 0.212499 0.0 255 255 255
0.669352 0.404342 0.0 255 255 255
0.654612 0.401631 0.0 255 255 255
0.636927 0.396010 0.0 255 255 255
0.617304 0.389661 0.0 255 255 255
0.601055 0.385394 0.0 255 255 255
0.588360 0.382931 0.0 255 255 255
0.576019 0.379871 0.0 255 255 255
0.565110 0.378221 0.0 255 255 255
0.551227 0.373770 0.0 255 255 255
0.535489 0.368444 0.0 0 0 255
0.523024 0.365362 0.0 0 0 255
0.509103 0.360819 0.0 0 0 255
0.498515 0.358439 0.0 0 0 255
0.488292 0.355509 0.0 0 0 255
0.479324 0.354210 0.0 0 0 255
0.469270 0.350972 0.0 0 0 255
0.455617 0.345828 0.0 0 0 255
0.446913 0.344042 0.0 0 0 255
0.436581 0.341048 0.0 0 0 255
0.427978 0.339044 0.0 0 0 255
0.419682 0.336617 0.0 0 0 255
0.417673 0.339106 0.0 0 0 255
0.415716 0.341503 0.0 0 0 255
0.410210 0.341883 0.0 0 0 255
0.405179 0.341658 0.0 0 0 255
0.400098 0.341464 0.0 0 0 255
0.390105 0.337748 0.0 0 0 255
0.377995 0.331856 0.0 0 0 255
0.368258 0.327773 0.0 0 0 255
0.362212 0.327027 0.0 0 0 255
0.355551 0.325434 0.0 0 0 255
0.348475 0.322784 0.0 0 0 255
0.341896 0.321042 0.0 0 0 255
0.337776 0.321034 0.0 0 0 255
0.333423 0.321245 0.0 255 0 0
0.327897 0.319762 0.0 255 0 0
0.324567 0.320301 0.0 255 0 0
0.322626 0.322255 0.0 255 0 0
0.322331 0.329581 0.0 255 0 0
0.319739 0.334867 0.0 255 0 0
0.317025 0.336065 0.0 255 0 0
0.318108 0.340534 0.0 255 0 0
0.314678 0.345060 0.0 255 0 0
0.312688 0.346865 0.0 255 0 0
0.309830 0.352089 0.0 255 0 0
0.291703 0.356974 0.0 255 0 0
0.290170 0.359507 0.0 255 0 0
0.288651 0.362008 0.0 255 0 0
0.288082 0.365012 0.0 255 0 0
0.287137 0.368295 0.0 255 0 0
0.285624 0.370733 0.0 255 0 0
0.284590 0.374043 0.0 255 0 0
0.283563 0.377327 0.0 255 0 0
0.282909 0.380314 0.0 255 0 0
0.281790 0.383628 0.0 255 0 0
0.098241 0.163798 0.0 0 0 255
0.097313 0.164351 0.0 0 0 255
0.095641 0.164173 0.0 0 0 255
0.094695 0.164721 0.0 0 0 255
0.093698 0.165290 0.0 0 0 255
0.092036 0.165077 0.0 0 0 255
0.091101 0.165595 0.0 0 0 255
0.090099 0.166142 0.0 0 0 255
0.088623 0.165801 0.0 0 0 255
0.087683 0.166300 0.0 0 0 255
0.087138 0.167714 0.0 0 0 255
0.086140 0.168229 0.0 0 0 255
0.084672 0.167853 0.0 0 0 255
0.083705 0.168337 0.0 0 0 255
0.082070 0.168029 0.0 0 0 255
0.081118 0.168490 0.0 0 0 255
0.080099 0.168977 0.0 0 0 255
0.079077 0.169458 0.0 0 0 255
0.078117 0.169902 0.0 0 0 255
0.076498 0.169541 0.0 0 0 255
0.075473 0.170000 0.0 0 0 255
0.074493 0.170431 0.0 0 0 255
0.073479 0.170871 0.0 0 0 255
0.072446 0.171311 0.0 0 0 255
0.071476 0.171718 0.0 0 0 255
0.070437 0.172147 0.0 0 0 255
0.069023 0.171642 0.0 0 0 255
0.068002 0.172049 0.0 0 0 255
0.067011 0.172437 0.0 0 0 255
0.065984 0.172832 0.0 0 0 255
0.064939 0.173228 0.0 0 0 255
0.063942 0.173599 0.0 0 0 255
0.062909 0.173975 0.0 0 0 255
0.061389 0.173457 0.0 0 0 255
0.060803 0.174723 0.0 0 0 255
0.059813 0.175064 0.0 0 0 255
0.058755 0.175422 0.0 0 0 255
0.057711 0.175768 0.0 0 0 255
0.056191 0.175210 0.0 0 0 255
0.055149 0.175541 0.0 0 0 255
0.054138 0.175855 0.0 0 0 255
0.053091 0.176174 0.0 0 0 255
0.052027 0.176491 0.0 0 0 255
0.050960 0.176802 0.0 0 0 255
0.049959 0.177088 0.0 0 0 255
0.048888 0.177386 0.0 0 0 255
0.047833 0.177674 0.0 0 0 255
0.046810 0.177946 0.0 0 0 255
0.045734 0.178226 0.0 0 0 255
0.045106 0.179417 0.0 0 0 255
0.043595 0.178761 0.0 0 0 255
0.042566 0.179009 0.0 0 0 255
0.041501 0.179259 0.0 0 0 255
0.040845 0.180435 0.0 0 0 255
0.039755 0.180678 0.0 0 0 255
0.038663 0.180915 0.0 0 0 255
0.037639 0.181131 0.0 0 0 255
0.036544 0.181355 0.0 0 0 255
0.035465 0.181569 0.0 0 0 255
0.034368 0.181780 0.0 0 0 255
0.033322 0.181974 0.0 255 255 255
0.032239 0.182169 0.0 255 255 255
0.031138 0.182361 0.0 255 255 255
0.030252 0.183523 0.0 0 0 255
0.029160 0.183700 0.0 0 0 255
0.028050 0.183873 0.0 0 0 255
0.026957 0.184036 0.0 0 0 255
0.025897 0.184188 0.0 0 0 255
0.024785 0.184341 0.0 0 0 255
0.023688 0.184485 0.0 0 0 255
0.022627 0.184619 0.0 0 0 255
0.021787 0.185726 0.0 0 0 255
0.020719 0.185849 0.0 0 0 255
0.019613 0.185969 0.0 0 0 255
0.018786 0.187059 0.0 0 0 255
0.017674 0.187167 0.0 0 0 255
0.016543 0.187271 0.0 0 0 255
0.015483 0.187361 0.0 0 0 255
0.014352 0.187451 0.0 0 0 255
0.013289 0.188532 0.0 0 0 255
0.012433 0.189593 0.0 0 0 255
0.011566 0.190649 0.0 0 0 255
0.007735 0.188842 0.0 0 0 255
-0.002270 0.198987 0.0 0 0 255
-0.005077 0.193934 0.0 0 0 255
-0.009431 0.197775 0.0 0 0 255
-0.010838 0.194699 0.0 0 0 255
-0.012178 0.191613 0.0 0 0 255
-0.013341 0.189531 0.0 0 0 255
-0.015630 0.189356 0.0 0 0 255
-0.021950 0.216892 0.0 0 0 255
-0.023260 0.216756 0.0 0 0 255
-0.025793 0.216469 0.0 0 0 255
-0.029582 0.213965 0.0 0 0 255
-0.033287 0.211395 0.0 0 0 255
-0.042542 0.189278 0.0 0 0 255
-0.101357 0.350645 0.0 255 0 0
-0.102623 0.347149 0.0 255 0 0
-0.104693 0.345486 0.0 255 255 255
-0.106676 0.345925 0.0 255 0 0
-0.109631 0.348147 0.0 255 0 0
-0.111632 0.347510 0.0 255 0 0
-0.113418 0.345879 0.0 255 0 0
-0.116423 0.348044 0.0 255 0 0
-0.120324 0.355172 0.0 255 0 0
-0.125855 0.358554 0.0 255 0 0
-0.180016 0.483581 0.0 255 255 255
-0.190757 0.485897 0.0 255 255 255
-0.067357 0.107666 0.0 0 0 255
-0.067665 0.106290 0.0 0 0 255
-0.068643 0.106851 0.0 0 0 255
-0.069256 0.106455 0.0 0 0 255
-0.069888 0.106041 0.0 0 0 255
-0.070527 0.105617 0.0 0 0 255
-0.070321 0.103344 0.0 0 0 255
-0.070709 0.100644 0.0 0 0 255
-0.070897 0.099285 0.0 0 0 255
-0.071486 0.098862 0.0 0 0 255
-0.071678 0.097484 0.0 0 0 255
-0.072257 0.097057 0.0 0 0 255
-0.072814 0.096639 0.0 0 0 255
-0.072890 0.095326 0.0 0 0 255
-0.073437 0.094905 0.0 0 0 255
-0.073563 0.093539 0.0 0 0 255
-0.074127 0.093093 0.0 0 0 255
-0.074661 0.092665 0.0 0 0 255
-0.074753 0.091301 0.0 0 0 255
-0.075304 0.090848 0.0 0 0 255
-0.075842 0.090399 0.0 0 0 255
-0.076361 0.089961 0.0 0 0 255
-0.076903 0.089498 0.0 0 0 255
-0.077434 0.089040 0.0 0 0 255
-0.077945 0.088593 0.0 0 0 255
-0.078470 0.088128 0.0 0 0 255
-0.078975 0.087675 0.0 0 0 255
-0.079503 0.087196 0.0 0 0 255
-0.080020 0.086722 0.0 0 0 255
-0.081033 0.087147 0.0 0 0 255
-0.081558 0.086656 0.0 0 0 255
-0.082055 0.086185 0.0 0 0 255
-0.082566 0.085696 0.0 0 0 255
-0.083082 0.085196 0.0 0 0 255
-0.083563 0.084725 0.0 0 0 255
-0.084617 0.085088 0.0 0 0 255
-0.085740 0.085379 0.0 0 0 255
-0.086230 0.084885 0.0 0 0 255
-0.151938 0.115740 0.0 255 255 255
-0.151210 0.113386 0.0 255 255 255
-0.150403 0.111122 0.0 255 255 255
-0.149549 0.108904 0.0 255 255 255
-0.148775 0.106560 0.0 255 255 255
-0.148680 0.104968 0.0 255 255 255
-0.147749 0.102811 0.0 255 255 255
-0.147650 0.101195 0.0 255 255 255
-0.147507 0.099628 0.0 255 255 255
-0.147245 0.098223 0.0 0 0 255
-0.147103 0.096627 0.0 0 0 255
-0.146918 0.095080 0.0 0 0 255
-0.147489 0.094191 0.0 0 0 255
-0.147280 0.092652 0.0 0 0 255
-0.147058 0.091121 0.0 0 0 255
-0.147597 0.090245 0.0 0 0 255
-0.147257 0.088878 0.0 0 0 255
-0.147791 0.087987 0.0 0 0 255
-0.148312 0.087107 0.0 0 0 255
-0.148036 0.085595 0.0 0 0 255
-0.148526 0.084742 0.0 0 0 255
-0.149703 0.080554 0.0 0 0 255
-0.149364 0.079065 0.0 0 0 255
-0.149839 0.078162 0.0 0 0 255
-0.150279 0.077313 0.0 0 0 255
-0.150743 0.076404 0.0 0 0 255
-0.150365 0.074930 0.0 0 0 255
-0.151626 0.074635 0.0 0 0 255
-0.152896 0.074316 0.0 0 0 255
-0.153335 0.073406 0.0 0 0 255
-0.153755 0.072522 0.0 0 0 255
-0.154183 0.071607 0.0 0 0 255
-0.154592 0.070719 0.0 0 0 255
-0.155017 0.069784 0.0 0 0 255
-0.156270 0.069431 0.0 0 0 255
-0.156687 0.068486 0.0 0 0 255
-0.157071 0.067599 0.0 0 0 255
-0.157477 0.066649 0.0 0 0 255
-0.158724 0.066263 0.0 0 0 255
-0.159121 0.065303 0.0 0 0 255
-0.160415 0.064776 0.0 0 0 255
-0.160803 0.063807 0.0 0 0 255
-0.161168 0.062880 0.0 0 0 255
-0.162407 0.062450 0.0 0 0 255
-0.163645 0.062010 0.0 0 0 255
-0.164017 0.061020 0.0 0 0 255
-0.165252 0.060562 0.0 0 0 255
-0.165598 0.059610 0.0 0 0 255
-0.166830 0.059134 0.0 0 0 255
-0.168123 0.058470 0.0 0 0 255
-0.169358 0.057955 0.0 0 0 255
-0.170587 0.057445 0.0 0 0 255
-0.171816 0.056925 0.0 0 0 255
-0.173107 0.056195 0.0 0 0 255
-0.174333 0.055652 0.0 0 0 255
-0.175557 0.055098 0.0 0 0 255
-0.176780 0.054534 0.0 0 0 255
-0.178048 0.053805 0.0 0 0 255
-0.180485 0.052621 0.0 0 0 255
-1.522664 0.255793 0.0 255 255 255
-0.380479 0.034051 0.0 255 0 0
-0.374723 0.030966 0.0 255 0 0
-0.369947 0.027931 0.0 255 0 0
-0.364145 0.024966 0.0 255 0 0
-0.359316 0.022179 0.0 255 255 255
-0.355465 0.019513 0.0 255 255 255
-0.350595 0.016853 0.0 255 255 255
-0.345710 0.014161 0.0 255 255 255
-0.340801 0.011637 0.0 255 255 255
-0.335875 0.009180 0.0 0 0 255
-0.330930 0.006790 0.0 0 0 255
-0.325969 0.004469 0.0 0 0 255
-0.322993 0.002137 0.0 0 0 255
-0.324000 0.000559 0.0 0 0 255
-0.326997 -0.001317 0.0 0 0 255
-0.328987 -0.002934 0.0 0 0 255
-0.329963 -0.004935 0.0 0 0 255
-0.330929 -0.006854 0.0 0 0 255
-0.331882 -0.008848 0.0 0 0 255
-0.332834 -0.010502 0.0 0 0 255
-0.333764 -0.012549 0.0 0 0 255
-0.334686 -0.014513 0.0 0 0 255
-0.335592 -0.016551 0.0 0 0 255
-0.336504 -0.018278 0.0 0 0 255
-0.337388 -0.020338 0.0 0 0 255
-0.337265 -0.022279 0.0 0 0 255
-0.339121 -0.024427 0.0 0 0 255
-0.339965 -0.026552 0.0 0 0 255
-0.343817 -0.028545 0.0 0 0 255
-0.350679 -0.030470 0.0 0 0 255
-0.356500 -0.032733 0.0 0 0 255
-0.359282 -0.035177 0.0 0 0 255
-0.361095 -0.037138 0.0 0 0 255
-0.361870 -0.039323 0.0 0 0 255
-0.359643 -0.041246 0.0 0 0 255
-0.354849 -0.047397 0.0 255 255 255
-0.349552 -0.049217 0.0 255 255 255
-0.348279 -0.051048 0.0 255 255 255
-0.351918 -0.053755 0.0 255 255 255
-0.354615 -0.055942 0.0 255 255 255
-0.356244 -0.058407 0.0 255 255 255
-0.356940 -0.060315 0.0 255 255 255
-0.358557 -0.062712 0.0 255 255 255
-0.360146 -0.065198 0.0 255 255 255
-0.360729 -0.067556 0.0 255 255 255
-0.362378 -0.069593 0.0 255 255 255
-0.364894 -0.072363 0.0 255 255 255
-0.371460 -0.075222 0.0 255 255 255
-0.376014 -0.082697 0.0 255 255 255
-0.223064 -0.067316 0.0 255 255 255
-0.223629 -0.068892 0.0 255 255 255
-0.224244 -0.070284 0.0 255 255 255
-0.225803 -0.071987 0.0 255 255 255
-2.031811 -0.514742 0.0 0 0 255
-2.017050 -0.523989 0.0 0 0 255
-2.013900 -0.535970 0.0 0 0 255
-2.014644 -0.548594 0.0 0 0 255
-2.015200 -0.561634 0.0 0 0 255
-2.019630 -0.575410 0.0 0 0 255
-2.019957 -0.588718 0.0 0 0 255
-2.016422 -0.600715 0.0 0 0 255
-2.016761 -0.613466 0.0 0 0 255
-2.016838 -0.626824 0.0 0 0 255
-2.016889 -0.640012 0.0 0 0 255
-2.016979 -0.652835 0.0 0 0 255
-2.016797 -0.666262 0.0 0 0 255
-2.016788 -0.678932 0.0 0 0 255
-2.020217 -0.693700 0.0 0 0 255
-2.016057 -0.705697 0.0 0 0 255
-2.015732 -0.718626 0.0 0 0 255
-2.011355 -0.730789 0.0 0 0 255
-1.995722 -0.738565 0.0 0 0 255
-2.002670 -0.754263 0.0 0 0 255
-2.030976 -0.792171 0.0 0 0 255
-2.044743 -0.811805 0.0 0 0 255
-2.032464 -0.820946 0.0 255 255 255
-2.024008 -0.831105 0.0 0 0 255
-2.026333 -0.846399 0.0 0 0 255
-2.024947 -0.859994 0.0 0 0 255
-2.023639 -0.873213 0.0 0 0 255
-2.025655 -0.888631 0.0 0 0 255
-2.027904 -0.903331 0.0 0 0 255
-2.020477 -0.929435 0.0 0 0 255
-1.989352 -0.957988 0.0 0 0 255
-1.951464 -0.953610 0.0 255 255 255
-1.927752 -0.956492 0.0 255 255 255
-1.925791 -0.969364 0.0 255 255 255
-1.927120 -0.984430 0.0 255 255 255
-1.928241 -0.999736 0.0 255 255 255
-1.936717 -1.018072 0.0 255 255 255
-1.944650 -1.037282 0.0 255 255 255
-1.945386 -1.052814 0.0 255 255 255
-1.942906 -1.065725 0.0 0 0 255
-1.946920 -1.083277 0.0 0 0 255
-1.944140 -1.096423 0.0 0 0 255
-1.942231 -1.107896 0.0 255 255 255
-1.945999 -1.125430 0.0 255 255 255
-1.949516 -1.143235 0.0 255 255 255
-1.949785 -1.158517 0.0 255 255 255
-1.949719 -1.174211 0.0 255 255 255
-1.949419 -1.190136 0.0 255 255 255
-1.952746 -1.207642 0.0 255 255 255
-1.952311 -1.223477 0.0 255 255 255
-1.951638 -1.239537 0.0 255 255 255
-1.951324 -1.254884 0.0 255 255 255
-1.947062 -1.268828 0.0 255 255 255
-1.949376 -1.287179 0.0 255 255 255
-1.954989 -1.307640 0.0 255 255 255
-1.957370 -1.325593 0.0 255 255 255
-1.955926 -1.341915 0.0 255 255 255
-1.957769 -1.360366 0.0 255 255 255
-1.956455 -1.376208 0.0 255 255 255
-1.954755 -1.392456 0.0 255 255 255
-1.952798 -1.408916 0.0 255 255 255
-1.954352 -1.427203 0.0 0 0 255
-1.958698 -1.448308 0.0 0 0 255
-1.956318 -1.464908 0.0 0 0 255
-1.957422 -1.483386 0.0 0 0 255
-1.962419 -1.503228 0.0 0 0 255
-1.963369 -1.521656 0.0 0 0 255
-1.960435 -1.538427 0.0 0 0 255
-1.960505 -1.557702 0.0 0 0 255
-1.939191 -1.558743 0.0 255 255 255
-1.911126 -1.555280 0.0 255 255 255
-1.889730 -1.574967 0.0 255 255 255
-1.854145 -1.586110 0.0 255 255 255
-1.832588 -1.586631 0.0 255 255 255
-1.810937 -1.587126 0.0 255 255 255
-1.768854 -1.568327 0.0 255 255 255
-1.729729 -1.552100 0.0 0 0 255
-1.702558 -1.546381 0.0 0 0 255
-1.678907 -1.542618 0.0 0 0 255
-1.660919 -1.544400 0.0 0 0 255
-1.636996 -1.540697 0.0 0 0 255
-1.619415 -1.541814 0.0 0 0 255
-1.602830 -1.547553 0.0 0 0 255
-1.585319 -1.548361 0.0 0 0 255
-1.567403 -1.549472 0.0 0 0 255
-1.546853 -1.547447 0.0 0 0 255
-1.529490 -1.547784 0.0 0 0 255
-1.511733 -1.548406 0.0 0 0 255
-1.496947 -1.551607 0.0 0 0 255
-1.482027 -1.554831 0.0 0 0 255
-1.464829 -1.554597 0.0 0 0 255
-1.447385 -1.554495 0.0 0 0 255
-1.429847 -1.554375 0.0 0 0 255
-1.415649 -1.556520 0.0 0 0 255
-1.398201 -1.556117 0.0 0 0 255
-1.383464 -1.558551 0.0 0 0 255
-1.366711 -1.557333 0.0 0 0 255
-1.352041 -1.559513 0.0 0 0 255
-1.334940 -1.558409 0.0 0 0 255
-1.320279 -1.563003 0.0 0 0 255
-1.305838 -1.564682 0.0 0 0 255
-1.290453 -1.564454 0.0 0 0 255
-1.274813 -1.564345 0.0 0 0 255
-1.259072 -1.564225 0.0 0 0 255
-1.245073 -1.565182 0.0 0 0 255
-1.230804 -1.566265 0.0 0 0 255
-1.216415 -1.567351 0.0 0 0 255
-1.203278 -1.569906 0.0 0 0 255
-1.188340 -1.568716 0.0 0 0 255
-1.174051 -1.569460 0.0 0 0 255
-1.161135 -1.571586 0.0 0 0 255
-1.146179 -1.570162 0.0 0 0 255
-1.130829 -1.568943 0.0 0 0 255
-1.119163 -1.572379 0.0 0 0 255
-1.106648 -1.573883 0.0 0 0 255
-1.092559 -1.573967 0.0 0 0 255
-1.080924 -1.577132 0.0 0 0 255
-0.871680 -1.312993 0.0 255 255 255
-0.849333 -1.329931 0.0 255 255 255
-0.987858 -1.580706 0.0 0 0 255
-0.975142 -1.581538 0.0 0 0 255
-0.963061 -1.581903 0.0 0 0 255
-0.950398 -1.582548 0.0 0 0 255
-0.935728 -1.579655 0.0 0 0 255
-0.923294 -1.580009 0.0 0 0 255
-0.911192 -1.580097 0.0 0 0 255
-0.907716 -1.595916 0.0 0 0 255
-0.912736 -1.627535 0.0 255 255 255
-0.910136 -1.645008 0.0 255 255 255
-0.897468 -1.645122 0.0 255 255 255
-0.885619 -1.646991 0.0 255 255 255
-0.873319 -1.646757 0.0 255 255 255
-0.850546 -1.627104 0.0 255 255 255
-0.829713 -1.610876 0.0 0 0 255
-0.819527 -1.613839 0.0 0 0 255
-0.809919 -1.618682 0.0 0 0 255
-0.795756 -1.663463 0.0 255 255 255
-0.780580 -1.657383 0.0 255 255 255
-0.767825 -1.654515 0.0 255 255 255
-0.755327 -1.653664 0.0 255 255 255
-0.744663 -1.656301 0.0 255 255 255
-0.733504 -1.656900 0.0 255 255 255
-0.721884 -1.657633 0.0 255 255 255
-0.705717 -1.647188 0.0 255 255 255
-0.690013 -1.636477 0.0 0 0 255
-0.677821 -1.635072 0.0 0 0 255
-0.667050 -1.635176 0.0 0 0 255
-0.656416 -1.637319 0.0 0 0 255
-0.645048 -1.637533 0.0 0 0 255
-0.635052 -1.639290 0.0 0 0 255
-0.622700 -1.641883 0.0 0 0 255
-0.611847 -1.641690 0.0 0 0 255
-0.600545 -1.641600 0.0 0 0 255
-0.590100 -1.643258 0.0 0 0 255
-0.579307 -1.642853 0.0 0 0 255
-0.568226 -1.642487 0.0 0 0 255
-0.556367 -1.640207 0.0 0 0 255
-0.546291 -1.641483 0.0 0 0 255
-0.535283 -1.640899 0.0 0 0 255
-0.525225 -1.642046 0.0 0 0 255
-0.514702 -1.643279 0.0 0 0 255
-0.503751 -1.642486 0.0 0 0 255
-0.493719 -1.643441 0.0 0 0 255
-0.483219 -1.644474 0.0 0 0 255
-0.472882 -1.645396 0.0 0 0 255
-0.462329 -1.644237 0.0 0 0 255
-0.452017 -1.645028 0.0 0 0 255
-0.441553 -1.645797 0.0 0 0 255
-0.431571 -1.646375 0.0 0 0 255
-0.421281 -1.646974 0.0 0 0 255
-0.410844 -1.647547 0.0 0 0 255
-0.400887 -1.647940 0.0 0 0 255
-0.390622 -1.648348 0.0 0 0 255
-0.380233 -1.646670 0.0 0 0 255
-0.369403 -1.645034 0.0 0 0 255
-0.359621 -1.647200 0.0 0 0 255
-0.350139 -1.649242 0.0 0 0 255
-0.339925 -1.649335 0.0 0 0 255
-0.329172 -1.647436 0.0 0 0 255
-0.319309 -1.647339 0.0 0 0 255
-0.309145 -1.647242 0.0 0 0 255
-0.299546 -1.651047 0.0 0 0 255
-0.289698 -1.650773 0.0 0 0 255
-0.279879 -1.652466 0.0 0 0 255
-0.269573 -1.652152 0.0 0 0 255
-0.259913 -1.651675 0.0 0 0 255
-0.249333 -1.649260 0.0 0 0 255
-0.239366 -1.650736 0.0 0 0 255
-0.230025 -1.652063 0.0 0 0 255
-0.220044 -1.653422 0.0 0 0 255
-0.210276 -1.652677 0.0 0 0 255
-0.200448 -1.653897 0.0 0 0 255
-0.190225 -1.653091 0.0 0 0 255
-0.180496 -1.652170 0.0 0 0 255
-0.170674 -1.653213 0.0 0 0 255
-0.160878 -1.656205 0.0 0 0 255
-0.151507 -1.657088 0.0 0 0 255
-0.141154 -1.653988 0.0 0 0 255
-0.131163 -1.654810 0.0 0 0 255
-0.121801 -1.655525 0.0 0 0 255
-0.092195 -1.653432 0.0 0 0 255
-0.097269 -2.081729 0.0 255 255 255
-0.085783 -2.094244 0.0 255 255 255
-0.073472 -2.098714 0.0 255 255 255
-0.060678 -2.095122 0.0 255 255 255
-0.048624 -2.095436 0.0 255 255 255
-0.036240 -2.099687 0.0 255 255 255
-0.023556 -2.099868 0.0 255 255 255
-0.011498 -2.103969 0.0 255 255 255
0.001010 -2.104000 0.0 255 255 255
0.013689 -2.099955 0.0 255 255 255
0.025818 -2.103842 0.0 255 255 255
0.038324 -2.103651 0.0 255 255 255
0.050521 -2.107395 0.0 255 255 255
0.063048 -2.107057 0.0 255 255 255
0.075771 -2.106638 0.0 255 255 255
0.087888 -2.106167 0.0 255 255 255
0.100407 -2.105607 0.0 255 255 255
0.113338 -2.108957 0.0 255 255 255
0.125231 -2.104277 0.0 255 255 255
0.137995 -2.107487 0.0 255 255 255
0.151009 -2.110605 0.0 255 255 255
0.149999 -1.759618 0.0 255 255 255
0.161716 -1.770630 0.0 255 255 255
0.172889 -1.781631 0.0 255 255 255
0.185084 -1.794480 0.0 255 255 255
0.251779 -2.113053 0.0 255 255 255
0.365860 -2.108494 0.0 255 255 255
0.384525 -1.657994 0.0 255 255 255
0.396848 -1.665369 0.0 255 255 255
0.411645 -1.684430 0.0 0 0 255
0.427631 -1.711382 0.0 0 0 255
0.338092 -1.263550 0.0 255 255 255
0.346245 -1.263414 0.0 255 255 255
0.369725 -1.260912 0.0 255 255 255
0.526107 -1.713031 0.0 0 0 255
0.343357 -1.061867 0.0 255 255 255
0.349459 -1.059875 0.0 255 255 255
0.355908 -1.061946 0.0 255 255 255
0.377000 -1.061012 0.0 255 255 255
0.629542 -1.718306 0.0 0 0 255
0.640606 -1.716347 0.0 0 0 255
0.650305 -1.712696 0.0 0 0 255
0.662802 -1.714333 0.0 0 0 255
0.478157 -1.174389 0.0 0 0 255
0.485243 -1.171479 0.0 0 0 255
0.493413 -1.172402 0.0 0 0 255
0.500486 -1.169401 0.0 0 0 255
0.506629 -1.164572 0.0 0 0 255
0.529696 -1.160861 0.0 0 0 255
0.795494 -1.721048 0.0 0 0 255
0.806726 -1.718021 0.0 0 0 255
0.820038 -1.720574 0.0 0 0 255
0.831994 -1.719269 0.0 0 0 255
0.845007 -1.719599 0.0 0 0 255
0.857562 -1.720079 0.0 0 0 255
0.879943 -1.713236 0.0 255 255 255
0.831405 -1.591974 0.0 0 0 255
0.838196 -1.581622 0.0 0 0 255
0.847127 -1.576857 0.0 0 0 255
0.856636 -1.571711 0.0 0 0 255
0.867899 -1.570091 0.0 0 0 255
0.881280 -1.571798 0.0 0 0 255
0.896236 -1.577136 0.0 255 255 255
0.913581 -1.585645 0.0 255 255 255
0.937267 -1.604274 0.0 0 0 255
0.961762 -1.624672 0.0 0 0 255
0.973802 -1.626815 0.0 0 0 255
0.987605 -1.627837 0.0 0 0 255
1.001611 -1.628656 0.0 0 0 255
1.014187 -1.606681 0.0 0 0 255
0.968989 -1.512176 0.0 255 255 255
0.972657 -1.497910 0.0 255 255 255
0.977291 -1.485324 0.0 255 255 255
0.928919 -1.373344 0.0 255 255 255
0.927763 -1.354776 0.0 255 255 255
0.935930 -1.349148 0.0 255 255 255
0.942781 -1.341925 0.0 255 255 255
0.957440 -1.346259 0.0 255 255 255
0.939257 -1.285402 0.0 255 255 255
0.944503 -1.276581 0.0 255 255 255
0.954595 -1.274053 0.0 255 255 255
0.961785 -1.268635 0.0 255 255 255
0.969430 -1.262802 0.0 255 255 255
0.979496 -1.260081 0.0 0 0 255
0.993153 -1.262095 0.0 0 0 255
1.001643 -1.257925 0.0 0 0 255
1.024162 -1.270636 0.0 0 0 255
1.049428 -1.288777 0.0 0 0 255
1.060884 -1.287148 0.0 0 0 255
1.072484 -1.285323 0.0 0 0 255
1.082440 -1.282188 0.0 0 0 255
1.092642 -1.278772 0.0 0 0 255
1.105580 -1.278199 0.0 0 0 255
1.128409 -1.274165 0.0 0 0 255
0.452917 -0.466225 0.0 255 255 255
0.449195 -0.455877 0.0 255 255 255
0.445221 -0.445734 0.0 255 255 255
0.440754 -0.436046 0.0 255 255 255
0.438027 -0.427406 0.0 255 255 255
0.436241 -0.420630 0.0 255 255 255
0.434429 -0.413849 0.0 255 0 0
0.431407 -0.405404 0.0 255 0 0
0.429412 -0.398750 0.0 255 0 0
0.427692 -0.391765 0.0 255 0 0
0.431533 -0.390517 0.0 255 0 0
0.433772 -0.388028 0.0 255 0 0
0.434573 -0.384118 0.0 255 0 0
0.432366 -0.377539 0.0 255 0 0
0.433124 -0.373614 0.0 255 0 0
0.434134 -0.369362 0.0 255 0 0
0.434790 -0.365488 0.0 255 0 0
0.436885 -0.362981 0.0 255 0 0
0.437524 -0.359067 0.0 255 0 0
0.439651 -0.356459 0.0 255 0 0
0.441795 -0.353798 0.0 255 0 0
0.442221 -0.350052 0.0 255 0 0
0.444328 -0.347374 0.0 255 0 0
0.446418 -0.344684 0.0 255 0 0
0.448361 -0.342153 0.0 255 0 0
0.450419 -0.339439 0.0 255 0 0
0.452428 -0.336756 0.0 255 0 0
0.456066 -0.335201 0.0 255 0 0
0.459605 -0.333747 0.0 255 0 0
0.461581 -0.331009 0.0 255 0 0
0.465204 -0.329372 0.0 255 0 0
0.470085 -0.329388 0.0 255 0 0
0.473710 -0.327681 0.0 255 0 0
0.477207 -0.326125 0.0 255 0 0
0.480827 -0.324355 0.0 255 0 0
0.486107 -0.323661 0.0 255 0 0
0.491023 -0.323481 0.0 255 0 0
0.496291 -0.322737 0.0 255 0 0
0.503281 -0.322974 0.0 255 0 0
0.511970 -0.316687 0.0 0 0 255
0.566113 -0.343162 0.0 255 255 255
0.564742 -0.337684 0.0 0 0 255
0.566675 -0.334430 0.0 0 0 255
0.568653 -0.331056 0.0 0 0 255
0.570642 -0.327615 0.0 0 0 255
0.572518 -0.324327 0.0 0 0 255
0.576181 -0.321894 0.0 0 0 255
0.579867 -0.319372 0.0 0 0 255
0.576482 -0.313056 0.0 0 0 255
0.601084 -0.317959 0.0 0 0 255
0.602903 -0.314496 0.0 0 0 255
0.602983 -0.309992 0.0 0 0 255
0.597707 -0.302731 0.0 0 0 255
0.594383 -0.295981 0.0 0 0 255
0.608386 -0.299250 0.0 0 0 255
0.626032 -0.304138 0.0 0 0 255
0.634754 -0.304472 0.0 0 0 255
0.631470 -0.297404 0.0 0 0 255
0.625969 -0.290280 0.0 0 0 255
0.620650 -0.282696 0.0 0 0 255
0.625673 -0.281299 0.0 0 0 255
0.643522 -0.285475 0.0 0 0 255
0.659871 -0.288046 0.0 0 0 255
0.666782 -0.287189 0.0 0 0 255
0.668505 -0.283156 0.0 0 0 255
0.670122 -0.279306 0.0 0 0 255
0.673621 -0.276077 0.0 0 0 255
0.678987 -0.273498 0.0 0 0 255
0.684320 -0.270929 0.0 0 0 255
0.687731 -0.267713 0.0 0 0 255
0.691203 -0.264270 0.0 0 0 255
0.692762 -0.260156 0.0 0 0 255
0.695782 -0.251968 0.0 255 255 255
0.725039 -0.259266 0.0 0 0 255
0.724899 -0.253664 0.0 0 0 255
0.726418 -0.249281 0.0 0 0 255
0.735207 -0.248286 0.0 0 0 255
0.741935 -0.240691 0.0 255 255 255
0.779329 -0.248536 0.0 0 0 255
0.771178 -0.241139 0.0 0 0 255
0.776446 -0.237647 0.0 0 0 255
0.789090 -0.237304 0.0 0 0 255
0.831918 -0.240560 0.0 0 0 255
0.933821 -0.254956 0.0 255 255 255
0.946866 -0.252674 0.0 255 255 255
0.950311 -0.247454 0.0 255 255 255
0.951718 -0.241983 0.0 255 255 255
0.954831 -0.237811 0.0 255 255 255
0.958171 -0.232603 0.0 255 255 255
0.961505 -0.227272 0.0 255 255 255
0.964745 -0.222186 0.0 255 255 255
0.968001 -0.216885 0.0 255 255 255
0.971247 -0.211459 0.0 0 0 255
0.974404 -0.206283 0.0 0 0 255
0.977572 -0.200889 0.0 0 0 255
0.980673 -0.195655 0.0 0 0 255
0.983782 -0.190202 0.0 0 0 255
0.986879 -0.184623 0.0 0 0 255
0.989893 -0.179300 0.0 0 0 255
0.994881 -0.174102 0.0 0 0 255
1.004761 -0.163645 0.0 0 0 255
1.374263 -0.208569 0.0 255 255 255
1.381377 -0.201526 0.0 255 255 255
1.398415 -0.195392 0.0 255 255 255
1.425323 -0.190521 0.0 255 255 255
