ply
format ascii 1.0
element vertex 788
property float x
property float y
property float z
property uchar red
property uchar green
property uchar blue
end_header
2.312941 -0.264361 0.0 0 0 255
2.395553 -0.244523 0.0 0 0 255
2.389000 -0.229517 0.0 0 0 255
2.406279 -0.216516 0.0 0 0 255
2.407523 -0.202208 0.0 0 0 255
2.449206 -0.117027 0.0 255 255 255
2.085124 1.998200 0.0 255 255 255
2.090437 2.027268 0.0 255 255 255
2.092426 2.053868 0.0 255 255 255
2.080184 2.066267 0.0 255 255 255
2.070485 2.081631 0.0 255 255 255
2.066284 2.102659 0.0 255 255 255
2.062108 2.123514 0.0 255 255 255
2.052016 2.138814 0.0 255 255 255
2.044770 2.156780 0.0 255 255 255
2.039908 2.177850 0.0 255 255 255
2.026929 2.189935 0.0 255 255 255
2.016363 2.205090 0.0 255 255 255
2.005688 2.220198 0.0 255 255 255
1.997782 2.238050 0.0 255 255 255
1.986876 2.253074 0.0 255 255 255
1.978703 2.270876 0.0 255 255 255
1.967559 2.285819 0.0 255 255 255
1.959119 2.303569 0.0 255 255 255
1.950318 2.321483 0.0 255 255 255
1.938365 2.336672 0.0 255 255 255
1.926754 2.351429 0.0 255 255 255
1.915032 2.366134 0.0 255 255 255
1.903430 2.380600 0.0 255 255 255
1.891495 2.395194 0.0 255 255 255
1.879687 2.409546 0.0 255 255 255
1.867539 2.424025 0.0 255 255 255
1.855285 2.438445 0.0 255 255 255
1.843160 2.452629 0.0 255 255 255
1.838310 2.471238 0.0 255 255 255
1.828085 2.488745 0.0 255 255 255
1.813262 2.499565 0.0 255 255 255
1.802789 2.516976 0.0 255 255 255
1.792171 2.534352 0.0 255 255 255
1.781654 2.551520 0.0 255 255 255
1.773024 2.572113 0.0 255 255 255
1.764454 2.592527 0.0 255 255 255
1.753223 2.609779 0.0 255 255 255
1.742099 2.626822 0.0 0 0 255
1.728395 2.640641 0.0 0 0 255
1.712413 2.651033 0.0 255 255 255
1.592646 2.537616 0.0 0 0 255
1.556234 2.513180 0.0 0 0 255
1.524582 2.495080 0.0 0 0 255
1.486768 2.466561 0.0 0 0 255
1.451634 2.440975 0.0 0 0 255
1.420676 2.422095 0.0 0 0 255
1.383988 2.392545 0.0 0 0 255
1.349175 2.371015 0.0 0 0 255
1.321353 2.354576 0.0 0 0 255
1.293555 2.338012 0.0 0 0 255
1.262393 2.314057 0.0 0 0 255
1.235131 2.296979 0.0 0 0 255
1.210215 2.283076 0.0 0 0 255
1.179737 2.258434 0.0 0 0 255
1.153260 2.240623 0.0 0 0 255
1.129063 2.226035 0.0 0 0 255
1.103085 2.207765 0.0 0 0 255
1.079211 2.197273 0.0 0 0 255
1.060908 2.192845 0.0 0 0 255
1.039041 2.181158 0.0 0 0 255
1.010561 2.154801 0.0 0 0 255
0.980969 2.124453 0.0 0 0 255
0.959844 2.112132 0.0 0 0 255
0.937472 2.095892 0.0 0 0 255
0.915128 2.079549 0.0 0 0 255
0.896197 2.070354 0.0 0 0 255
0.872306 2.054485 0.0 0 0 255
0.850633 2.037569 0.0 0 0 255
0.829198 2.020467 0.0 0 0 255
0.811765 2.010289 0.0 0 0 255
0.790758 1.992847 0.0 0 0 255
0.771442 1.978953 0.0 0 0 255
0.755372 1.972297 0.0 0 0 255
0.737816 1.961847 0.0 0 0 255
0.719212 1.947437 0.0 0 0 255
0.701983 1.936703 0.0 0 0 255
0.682211 1.924669 0.0 0 0 255
0.663531 1.907911 0.0 0 0 255
0.646834 1.896740 0.0 0 0 255
0.631560 1.889232 0.0 0 0 255
0.615336 1.877748 0.0 0 0 255
0.598483 1.864291 0.0 0 0 255
0.583790 1.856369 0.0 0 0 255
0.569035 1.848392 0.0 0 0 255
0.553421 1.836423 0.0 0 0 255
0.538362 1.826303 0.0 0 0 255
0.523997 1.817991 0.0 0 0 255
0.507825 1.808037 0.0 0 0 255
0.492833 1.795595 0.0 0 0 255
0.478354 1.785016 0.0 0 0 255
0.464700 1.776218 0.0 0 0 255
0.451490 1.769303 0.0 0 0 255
0.437897 1.760353 0.0 0 0 255
0.424597 1.751263 0.0 0 0 255
0.411257 1.742116 0.0 0 0 255
0.398206 1.732835 0.0 0 0 255
0.385115 1.723497 0.0 0 0 255
0.370344 1.714457 0.0 0 0 255
0.358095 1.706840 0.0 0 0 255
0.345784 1.699173 0.0 0 0 255
0.333192 1.689458 0.0 0 0 255
0.321266 1.681586 0.0 0 0 255
0.309289 1.673662 0.0 0 0 255
0.297927 1.667596 0.0 0 0 255
0.286627 1.659428 0.0 0 0 255
0.274955 1.651265 0.0 0 0 255
0.263554 1.642996 0.0 0 0 255
0.252100 1.634675 0.0 0 0 255
0.240913 1.626252 0.0 0 0 255
0.228253 1.619999 0.0 0 0 255
0.217397 1.613419 0.0 0 0 255
0.197315 1.609954 0.0 0 0 255
0.164532 1.577443 0.0 0 0 255
0.154565 1.572422 0.0 0 0 255
0.144330 1.565360 0.0 0 0 255
0.134016 1.556240 0.0 0 0 255
0.105824 1.554402 0.0 0 0 255
0.084083 1.523682 0.0 0 0 255
0.074583 1.518169 0.0 0 0 255
0.065125 1.508595 0.0 0 0 255
0.055792 1.502965 0.0 0 0 255
0.046731 1.499272 0.0 0 0 255
0.037473 1.491529 0.0 0 0 255
0.028453 1.483727 0.0 0 0 255
0.019413 1.477872 0.0 0 0 255
0.010443 1.471963 0.0 0 0 255
0.001686 1.465999 0.0 0 0 255
-0.007140 1.459983 0.0 0 0 255
-0.015751 1.453915 0.0 0 0 255
-0.024432 1.447794 0.0 0 0 255
-0.034559 1.441586 0.0 0 0 255
-0.043009 1.437357 0.0 0 0 255
-0.051063 1.431089 0.0 0 0 255
-0.059454 1.424760 0.0 0 0 255
-0.067636 1.418388 0.0 0 0 255
-0.075988 1.413960 0.0 0 0 255
-0.084151 1.409490 0.0 0 0 255
-0.092139 1.400973 0.0 0 0 255
-0.100170 1.394407 0.0 0 0 255
-0.108147 1.389799 0.0 0 0 255
-0.116203 1.385134 0.0 0 0 255
-0.124077 1.380435 0.0 0 0 255
-0.132031 1.375679 0.0 0 0 255
-0.139801 1.370890 0.0 0 0 255
-0.147432 1.364056 0.0 0 0 255
-0.156028 1.357060 0.0 0 0 255
-0.163742 1.352122 0.0 0 0 255
-0.171272 1.347156 0.0 0 0 255
-0.179143 1.344115 0.0 0 0 255
-0.186575 1.339064 0.0 0 0 255
-0.194085 1.333955 0.0 0 0 255
-0.201156 1.328861 0.0 0 0 255
-0.208430 1.323691 0.0 0 0 255
-0.215774 1.318460 0.0 0 0 255
-0.223064 1.313189 0.0 0 0 255
-0.230520 1.309870 0.0 0 0 255
-0.237709 1.304519 0.0 0 0 255
-0.244719 1.299152 0.0 0 0 255
-0.252180 1.295687 0.0 0 0 255
-0.258449 1.288332 0.0 0 0 255
-0.265293 1.282856 0.0 0 0 255
-0.272618 1.279274 0.0 0 0 255
-0.279361 1.273724 0.0 0 0 255
-0.286610 1.270062 0.0 0 0 255
-0.293251 1.264440 0.0 0 0 255
-0.300418 1.260700 0.0 0 0 255
-0.308515 1.256684 0.0 0 0 255
-0.315124 1.250918 0.0 0 0 255
-0.322054 1.247087 0.0 0 0 255
-0.329067 1.243186 0.0 0 0 255
-0.335929 1.239277 0.0 0 0 255
-0.342873 1.235298 0.0 0 0 255
-0.347790 1.225609 0.0 0 0 255
-0.352840 1.215837 0.0 0 0 255
-0.360176 1.213684 0.0 0 0 255
-0.366920 1.209573 0.0 0 0 255
-0.372920 1.203549 0.0 0 0 255
-0.380181 1.201275 0.0 0 0 255
-0.387315 1.198994 0.0 0 0 255
-0.393298 1.192834 0.0 0 0 255
-0.399517 1.188656 0.0 0 0 255
-0.405927 1.184368 0.0 0 0 255
-0.412412 1.180007 0.0 0 0 255
-0.418077 1.173766 0.0 0 0 255
-0.424477 1.169340 0.0 0 0 255
-0.430725 1.164920 0.0 0 0 255
-0.437049 1.160426 0.0 0 0 255
-0.444051 1.157765 0.0 0 0 255
-0.449866 1.153371 0.0 0 0 255
-0.456087 1.148774 0.0 0 0 255
-0.462157 1.144188 0.0 0 0 255
-0.468300 1.139526 0.0 0 0 255
-0.475174 1.136676 0.0 0 0 255
-0.481921 1.133832 0.0 0 0 255
-0.487968 1.129065 0.0 0 0 255
-0.494836 1.123887 0.0 0 0 255
-0.500691 1.119100 0.0 0 0 255
-0.506614 1.114234 0.0 0 0 255
-0.513334 1.111155 0.0 0 0 255
-0.519930 1.108083 0.0 0 0 255
-0.525753 1.103117 0.0 0 0 255
-0.532090 1.100074 0.0 0 0 255
-0.538621 1.096892 0.0 0 0 255
-0.544342 1.091829 0.0 0 0 255
-0.549017 1.085005 0.0 0 0 255
-0.555561 1.081669 0.0 0 0 255
-0.561979 1.078348 0.0 0 0 255
-0.567548 1.073166 0.0 0 0 255
-0.574020 1.069718 0.0 0 0 255
-0.580062 1.066454 0.0 0 0 255
-0.585525 1.061181 0.0 0 0 255
-0.590847 1.055936 0.0 0 0 255
-0.597214 1.052347 0.0 0 0 255
-0.604558 1.050454 0.0 0 0 255
-0.609782 1.045115 0.0 0 0 255
-0.616084 1.041413 0.0 0 0 255
-0.622264 1.037732 0.0 0 0 255
-0.627185 1.032426 0.0 0 0 255
-0.633408 1.028620 0.0 0 0 255
-0.639511 1.024836 0.0 0 0 255
-0.645690 1.020955 0.0 0 0 255
-0.651748 1.017098 0.0 0 0 255
-0.657878 1.013144 0.0 0 0 255
-0.663986 1.009151 0.0 0 0 255
-0.671082 1.006851 0.0 0 0 255
-0.675744 1.001316 0.0 0 0 255
-0.676040 0.989027 0.0 0 0 255
-0.682002 0.984925 0.0 0 0 255
-0.692533 0.987337 0.0 0 0 255
-0.699548 0.984833 0.0 0 0 255
-0.705483 0.980591 0.0 0 0 255
-0.712477 0.977996 0.0 0 0 255
-0.718372 0.973675 0.0 0 0 255
-0.722764 0.967923 0.0 0 0 255
-0.729710 0.965206 0.0 0 0 255
-0.736743 0.962369 0.0 0 0 255
-0.741225 0.956392 0.0 0 0 255
-0.746989 0.951897 0.0 0 0 255
-0.753968 0.948934 0.0 0 0 255
-0.759595 0.944436 0.0 0 0 255
-0.759966 0.933845 0.0 0 0 255
-0.764233 0.927768 0.0 0 0 255
-0.774945 0.929280 0.0 0 0 255
-0.781834 0.926110 0.0 0 0 255
-0.788625 0.922966 0.0 0 0 255
-0.795494 0.919698 0.0 0 0 255
-0.800946 0.914955 0.0 0 0 255
-0.807522 0.911829 0.0 0 0 255
-0.814350 0.908424 0.0 0 0 255
-0.819736 0.903567 0.0 0 0 255
-0.825177 0.898600 0.0 0 0 255
-0.831866 0.895144 0.0 0 0 255
-0.838628 0.891560 0.0 0 0 255
-0.845377 0.887926 0.0 0 0 255
-0.850385 0.883132 0.0 0 0 255
-0.857100 0.879411 0.0 0 0 255
-0.862793 0.876634 0.0 0 0 255
-0.869483 0.872825 0.0 0 0 255
-0.874656 0.867641 0.0 0 0 255
-0.881310 0.863741 0.0 0 0 255
-0.887865 0.859879 0.0 0 0 255
-0.893042 0.854501 0.0 0 0 255
-0.899559 0.850552 0.0 0 0 255
-0.904437 0.845363 0.0 0 0 255
-0.910996 0.841241 0.0 0 0 255
-0.917457 0.837160 0.0 0 0 255
-0.923982 0.832942 0.0 0 0 255
-0.930491 0.828676 0.0 0 0 255
-0.935400 0.823130 0.0 0 0 255
-0.941863 0.818778 0.0 0 0 255
-0.949513 0.816044 0.0 0 0 255
-0.955950 0.811588 0.0 0 0 255
-0.962367 0.807084 0.0 0 0 255
-0.968687 0.802627 0.0 0 0 255
-0.975065 0.798028 0.0 0 0 255
-0.981347 0.793475 0.0 0 0 255
-0.989246 0.790030 0.0 0 0 255
-0.993775 0.784326 0.0 0 0 255
-0.999997 0.779635 0.0 0 0 255
-1.007857 0.776020 0.0 0 0 255
-1.014045 0.771226 0.0 0 0 255
-1.020283 0.766289 0.0 0 0 255
-1.028106 0.762495 0.0 0 0 255
-1.034234 0.757552 0.0 0 0 255
-1.041815 0.753935 0.0 0 0 255
-1.047904 0.748893 0.0 0 0 255
-1.054043 0.743703 0.0 0 0 255
-1.060157 0.738465 0.0 0 0 255
-1.067048 0.735544 0.0 0 0 255
-1.073055 0.730313 0.0 0 0 255
-1.080767 0.726048 0.0 0 0 255
-1.086731 0.720716 0.0 0 0 255
-1.094410 0.716331 0.0 0 0 255
-1.090114 0.704595 0.0 0 0 255
-1.122177 0.706396 0.0 0 0 255
-1.117927 0.694331 0.0 0 0 255
-1.125445 0.689763 0.0 0 0 255
-1.131303 0.683987 0.0 0 0 255
-1.137065 0.678276 0.0 0 0 255
-1.146119 0.674768 0.0 0 0 255
-1.153633 0.669841 0.0 0 0 255
-1.159330 0.663965 0.0 0 0 255
-1.168544 0.659901 0.0 0 0 255
-1.175940 0.654891 0.0 0 0 255
-1.183380 0.649700 0.0 0 0 255
-1.192498 0.645511 0.0 0 0 255
-1.197956 0.639582 0.0 0 0 255
-1.205337 0.634199 0.0 0 0 255
-1.213929 0.630715 0.0 0 0 255
-1.221097 0.625545 0.0 0 0 255
-1.228364 0.620080 0.0 0 0 255
-1.233878 0.613539 0.0 0 0 255
-1.241095 0.607953 0.0 0 0 255
-1.250148 0.603054 0.0 0 0 255
-1.260937 0.599044 0.0 0 0 255
-1.269967 0.593959 0.0 0 0 255
-1.275180 0.587480 0.0 0 0 255
-1.282292 0.581541 0.0 0 0 255
-1.291260 0.576232 0.0 0 0 255
-1.298325 0.570155 0.0 0 0 255
-1.305417 0.563888 0.0 0 0 255
-1.314321 0.558340 0.0 0 0 255
-1.324999 0.553601 0.0 0 0 255
-1.335561 0.549012 0.0 0 0 255
-1.342092 0.543592 0.0 0 0 255
-1.347055 0.536603 0.0 0 0 255
-1.357671 0.531502 0.0 0 0 255
-1.364590 0.524727 0.0 0 0 255
-1.373298 0.518726 0.0 0 0 255
-1.383906 0.513205 0.0 0 0 255
-1.392619 0.506888 0.0 0 0 255
-1.401258 0.500620 0.0 0 0 255
-1.409918 0.494133 0.0 0 0 255
-1.420302 0.488617 0.0 0 0 255
-1.440249 0.466776 0.0 0 0 255
-2.469841 0.786351 0.0 0 0 255
-2.482182 0.773803 0.0 0 0 255
-2.498216 0.762537 0.0 0 0 255
-2.514058 0.751590 0.0 0 0 255
-2.530070 0.739758 0.0 0 0 255
-2.549806 0.729104 0.0 255 255 255
-2.561868 0.715845 0.0 255 255 255
-2.573795 0.702711 0.0 255 255 255
-2.589588 0.690241 0.0 0 0 255
-2.609194 0.678618 0.0 0 0 255
-2.632568 0.668015 0.0 0 0 255
-2.659578 0.624876 0.0 0 0 255
-2.693748 0.601102 0.0 0 0 255
-2.724467 0.591799 0.0 0 0 255
-2.755388 0.581113 0.0 0 0 255
-2.786280 0.570071 0.0 0 0 255
-2.805313 0.556612 0.0 0 0 255
-2.781126 0.534378 0.0 0 0 255
-2.744928 0.510522 0.0 0 0 255
-2.736151 0.491808 0.0 0 0 255
-2.723308 0.472536 0.0 0 0 255
-2.714102 0.455144 0.0 0 0 255
-2.708904 0.437466 0.0 0 0 255
-2.700079 0.416407 0.0 0 0 255
-2.686680 0.398004 0.0 0 0 255
-2.669234 0.378957 0.0 0 0 255
-2.651551 0.360903 0.0 0 0 255
-2.637784 0.343070 0.0 0 0 255
-2.631869 0.326147 0.0 0 0 255
-2.621843 0.309091 0.0 0 0 255
-2.611736 0.291919 0.0 0 0 255
-2.605496 0.275297 0.0 0 0 255
-2.595146 0.258614 0.0 0 0 255
-2.580730 0.241443 0.0 0 0 255
-2.570165 0.225055 0.0 0 0 255
-2.563444 0.209614 0.0 0 0 255
-2.552698 0.193220 0.0 0 0 255
-2.533850 0.176651 0.0 0 0 255
-2.522895 0.160584 0.0 0 0 255
-2.511824 0.144892 0.0 255 255 255
-2.500670 0.129098 0.0 255 255 255
-2.493401 0.113866 0.0 255 255 255
-2.482053 0.098331 0.0 255 255 255
-2.478604 0.083203 0.0 255 255 255
-2.471038 0.068958 0.0 255 255 255
-2.463692 0.038978 0.0 255 255 255
-1.311999 0.001509 0.0 255 255 255
-1.303984 -0.006377 0.0 255 255 255
-1.289907 -0.015458 0.0 255 255 255
-1.281794 -0.022982 0.0 255 255 255
-1.277642 -0.030261 0.0 255 255 255
-1.279435 -0.038038 0.0 255 255 255
-1.281185 -0.045714 0.0 255 255 255
-1.280885 -0.053450 0.0 255 255 255
-1.280545 -0.061063 0.0 255 255 255
-1.286144 -0.069119 0.0 255 255 255
-1.293777 -0.075874 0.0 255 255 255
-1.313253 -0.084980 0.0 255 255 255
-1.320117 -0.101323 0.0 255 255 255
-1.301553 -0.107684 0.0 255 255 255
-1.278878 -0.114578 0.0 255 255 255
-1.254271 -0.120015 0.0 255 255 255
-1.233626 -0.125564 0.0 255 255 255
-1.230870 -0.132679 0.0 255 255 255
-1.232033 -0.140338 0.0 255 255 255
-1.229191 -0.147421 0.0 255 255 255
-1.228323 -0.154489 0.0 255 255 255
-1.225385 -0.161643 0.0 255 255 255
-1.228365 -0.169471 0.0 255 255 255
-1.227319 -0.176888 0.0 255 255 255
-1.224267 -0.183883 0.0 255 255 255
-1.223135 -0.191273 0.0 255 255 255
-1.221957 -0.198658 0.0 255 255 255
-1.222727 -0.206251 0.0 255 255 255
-1.217518 -0.212944 0.0 255 255 255
-1.212358 -0.219116 0.0 255 255 255
-1.211013 -0.226434 0.0 255 255 255
-1.209623 -0.233745 0.0 255 255 255
-1.208212 -0.240931 0.0 255 255 255
-1.206735 -0.248223 0.0 255 255 255
-1.207195 -0.255807 0.0 255 255 255
-1.207581 -0.263521 0.0 255 255 255
-1.204016 -0.270372 0.0 255 255 255
-1.202388 -0.277522 0.0 255 255 255
-1.200772 -0.284435 0.0 255 255 255
-1.202946 -0.292513 0.0 255 255 255
-1.203098 -0.300258 0.0 255 255 255
-1.201263 -0.307518 0.0 255 255 255
-1.201348 -0.315161 0.0 255 255 255
-1.203285 -0.323450 0.0 255 255 255
-1.205198 -0.331659 0.0 255 255 255
-1.207023 -0.340016 0.0 255 255 255
-1.208824 -0.348292 0.0 255 255 255
-1.212454 -0.357284 0.0 255 255 255
-1.218039 -0.366558 0.0 255 255 255
-1.225398 -0.376729 0.0 255 255 255
-1.228824 -0.385922 0.0 255 255 255
-1.234430 -0.394714 0.0 255 255 255
-1.245449 -0.406149 0.0 255 255 255
-1.258194 -0.418597 0.0 255 255 255
-1.273878 -0.440838 0.0 255 255 255
-5.066449 -1.845198 0.0 255 255 255
-5.047710 -1.872986 0.0 255 255 255
-5.051458 -1.908605 0.0 255 255 255
-5.062236 -1.947702 0.0 0 0 255
-5.124868 -2.007423 0.0 0 0 255
-5.239179 -2.088207 0.0 0 0 255
-5.354292 -2.208804 0.0 255 255 255
-5.697687 -2.383137 0.0 0 0 255
-5.823063 -2.476999 0.0 0 0 255
-5.954846 -2.575646 0.0 0 0 255
-6.060690 -2.751432 0.0 255 255 255
-6.720438 -3.097695 0.0 0 0 255
-6.788543 -3.178946 0.0 255 255 255
-6.776756 -3.222668 0.0 255 255 255
-6.749962 -3.260066 0.0 255 255 255
-8.175660 -4.059429 0.0 0 0 255
-10.475472 -5.518160 0.0 0 0 255
-10.885996 -5.887313 0.0 0 0 255
-13.447253 -7.587159 0.0 255 255 255
-18.338840 -11.229824 0.0 255 255 255
-17.971560 -11.455321 0.0 0 0 255
-17.655481 -11.706658 0.0 255 255 255
-17.446239 -12.016264 0.0 255 255 255
-16.597637 -12.800001 0.0 255 255 255
-11.742284 -9.397892 0.0 255 255 255
-9.934617 -8.247614 0.0 255 255 255
-2.171284 -2.110523 0.0 255 255 255
-1.874498 -1.892922 0.0 255 255 255
-1.804415 -1.866361 0.0 0 0 255
-1.793649 -1.876710 0.0 0 0 255
-1.785207 -1.890247 0.0 0 0 255
-1.776489 -1.903918 0.0 0 0 255
-1.767851 -1.917386 0.0 0 0 255
-1.758930 -1.930987 0.0 0 0 255
-1.750096 -1.944382 0.0 0 0 255
-1.740980 -1.957904 0.0 0 0 255
-1.726482 -1.965379 0.0 0 0 255
-1.715337 -1.975114 0.0 0 0 255
-1.711189 -1.994547 0.0 0 0 255
-1.699113 -2.004844 0.0 0 0 255
-1.687165 -2.014909 0.0 0 0 255
-1.677512 -2.028146 0.0 0 0 255
-1.673023 -2.047372 0.0 0 0 255
-1.668162 -2.066778 0.0 0 0 255
-1.658340 -2.079785 0.0 0 0 255
-1.648222 -2.092907 0.0 0 0 255
-1.638612 -2.105511 0.0 0 0 255
-1.630946 -2.121554 0.0 0 0 255
-1.620519 -2.134553 0.0 0 0 255
-1.610201 -2.147349 0.0 0 0 255
-1.599585 -2.160248 0.0 0 0 255
-1.591229 -2.176329 0.0 0 0 255
-1.580605 -2.188993 0.0 0 0 255
-1.571997 -2.205014 0.0 0 0 255
-1.565773 -2.224130 0.0 0 0 255
-1.557520 -2.239668 0.0 0 0 255
-1.550435 -2.254295 0.0 0 0 255
-1.539040 -2.266926 0.0 0 0 255
-1.530649 -2.282240 0.0 0 0 255
-1.519043 -2.294780 0.0 0 0 255
-1.507341 -2.307262 0.0 0 0 255
-1.495771 -2.319541 0.0 0 0 255
-1.486027 -2.335283 0.0 0 0 255
-1.476373 -2.350851 0.0 0 0 255
-1.466359 -2.366526 0.0 0 0 255
-1.454356 -2.378611 0.0 0 0 255
-1.444093 -2.394203 0.0 0 0 255
-1.434389 -2.409345 0.0 0 0 255
-1.424093 -2.424728 0.0 0 0 255
-1.415439 -2.443667 0.0 0 0 255
-1.402636 -2.455646 0.0 0 0 255
-1.393903 -2.474396 0.0 0 0 255
-1.382820 -2.489762 0.0 0 0 255
-1.373759 -2.508463 0.0 0 0 255
-1.364282 -2.527275 0.0 0 0 255
-1.352992 -2.542403 0.0 0 0 255
-1.342062 -2.557228 0.0 0 0 255
-1.330270 -2.572392 0.0 0 0 255
-1.318587 -2.587382 0.0 0 0 255
-1.308318 -2.606024 0.0 0 0 255
-1.296350 -2.620926 0.0 0 0 255
-1.284002 -2.635899 0.0 0 0 255
-1.255736 -2.658332 0.0 0 0 255
-1.222638 -2.669317 0.0 0 0 255
-1.196884 -2.654658 0.0 0 0 255
-1.164607 -2.625276 0.0 0 0 255
-1.137783 -2.606489 0.0 0 0 255
-1.115705 -2.598612 0.0 0 0 255
-1.094013 -2.590459 0.0 0 0 255
-1.067608 -2.571161 0.0 0 0 255
-1.038457 -2.544231 0.0 0 0 255
-1.012197 -2.528959 0.0 0 0 255
-0.991289 -2.520042 0.0 0 0 255
-0.968840 -2.507328 0.0 0 0 255
-0.942562 -2.483126 0.0 0 0 255
-0.917771 -2.462535 0.0 0 0 255
-0.898089 -2.452750 0.0 0 0 255
-0.878080 -2.442988 0.0 0 0 255
-0.853996 -2.421841 0.0 0 0 255
-0.833049 -2.407973 0.0 0 0 255
-0.813349 -2.397809 0.0 0 0 255
-0.792540 -2.383700 0.0 0 0 255
-0.770920 -2.365550 0.0 0 0 255
-0.750538 -2.351110 0.0 0 0 255
-0.728565 -2.337070 0.0 0 0 255
-0.709988 -2.326057 0.0 0 0 255
-0.691346 -2.314972 0.0 0 0 255
-0.672864 -2.303748 0.0 0 0 255
-0.652570 -2.284629 0.0 0 0 255
-0.635532 -2.276971 0.0 0 0 255
-0.618428 -2.265094 0.0 0 0 255
-0.600613 -2.253328 0.0 0 0 255
-0.582967 -2.241429 0.0 0 0 255
-0.565697 -2.229347 0.0 0 0 255
-0.547419 -2.213308 0.0 0 0 255
-0.531440 -2.204857 0.0 0 0 255
-0.514460 -2.192449 0.0 0 0 255
-0.498537 -2.183818 0.0 0 0 255
-0.481069 -2.175444 0.0 0 0 255
-0.464767 -2.162622 0.0 0 0 255
-0.449245 -2.153643 0.0 0 0 255
-0.433264 -2.140593 0.0 0 0 255
-0.418016 -2.131395 0.0 0 0 255
-0.402759 -2.118046 0.0 0 0 255
-0.388714 -2.112535 0.0 0 0 255
-0.373149 -2.099091 0.0 0 0 255
-0.359311 -2.093388 0.0 0 0 255
-0.344701 -2.083681 0.0 0 0 255
-0.329592 -2.069924 0.0 0 0 255
-0.315468 -2.059984 0.0 0 0 255
-0.301865 -2.049893 0.0 0 0 255
-0.288555 -2.043730 0.0 0 0 255
-0.274599 -2.033544 0.0 0 0 255
-0.258643 -2.023537 0.0 0 0 255
-0.245788 -2.015065 0.0 0 0 255
-0.232426 -2.004570 0.0 0 0 255
-0.219221 -1.995997 0.0 0 0 255
-0.206526 -1.989308 0.0 0 0 255
-0.193926 -1.984548 0.0 0 0 255
-0.180839 -1.973733 0.0 0 0 255
-0.168079 -1.962817 0.0 0 0 255
-0.155990 -1.953783 0.0 0 0 255
-0.143596 -1.946711 0.0 0 0 255
-0.131484 -1.939548 0.0 0 0 255
-0.119273 -1.932322 0.0 0 0 255
-0.107227 -1.923013 0.0 0 0 255
-0.095116 -1.913638 0.0 0 0 255
-0.083389 -1.906177 0.0 0 0 255
-0.072118 -1.898631 0.0 0 0 255
-0.060393 -1.891036 0.0 0 0 255
-0.046776 -1.883419 0.0 0 0 255
-0.035394 -1.873666 0.0 0 0 255
-0.024484 -1.863839 0.0 0 0 255
-0.013182 -1.857953 0.0 0 0 255
-0.002128 -1.849999 0.0 0 0 255
0.009018 -1.843978 0.0 0 0 255
0.019868 -1.833892 0.0 0 0 255
0.030810 -1.825740 0.0 0 0 255
0.041526 -1.819526 0.0 0 0 255
0.051821 -1.813260 0.0 0 0 255
0.062562 -1.806917 0.0 0 0 255
0.073059 -1.800518 0.0 0 0 255
0.083654 -1.794051 0.0 0 0 255
0.093898 -1.785533 0.0 0 0 255
0.104210 -1.776947 0.0 0 0 255
0.113916 -1.768335 0.0 0 0 255
0.124005 -1.761641 0.0 0 0 255
0.134339 -1.756871 0.0 0 0 255
0.144617 -1.752042 0.0 0 0 255
0.156005 -1.745041 0.0 0 0 255
0.165806 -1.738109 0.0 0 0 255
0.175494 -1.729117 0.0 0 0 255
0.185128 -1.722078 0.0 0 0 255
0.194847 -1.714967 0.0 0 0 255
0.204489 -1.707801 0.0 0 0 255
0.214388 -1.704571 0.0 0 0 255
0.223929 -1.701326 0.0 0 0 255
0.233218 -1.694022 0.0 0 0 255
0.242308 -1.684663 0.0 0 0 255
0.251886 -1.679213 0.0 0 0 255
0.260938 -1.671758 0.0 0 0 255
0.270388 -1.666204 0.0 0 0 255
0.279292 -1.658650 0.0 0 0 255
0.288142 -1.653075 0.0 0 0 255
0.297056 -1.645400 0.0 0 0 255
0.306462 -1.641640 0.0 0 0 255
0.315615 -1.635831 0.0 0 0 255
0.324553 -1.630003 0.0 0 0 255
0.333186 -1.622135 0.0 0 0 255
0.342147 -1.616180 0.0 0 0 255
0.350433 -1.610311 0.0 0 0 255
0.359280 -1.604261 0.0 0 0 255
0.367913 -1.598199 0.0 0 0 255
0.378317 -1.591657 0.0 0 0 255
0.386520 -1.585568 0.0 0 0 255
0.395602 -1.581265 0.0 0 0 255
0.404001 -1.575011 0.0 0 0 255
0.412999 -1.570607 0.0 0 0 255
0.421286 -1.564263 0.0 0 0 255
0.429663 -1.557834 0.0 0 0 255
0.437979 -1.551360 0.0 0 0 255
0.445639 -1.545015 0.0 0 0 255
0.454395 -1.540377 0.0 0 0 255
0.462966 -1.535734 0.0 0 0 255
0.471646 -1.530998 0.0 0 0 255
0.479685 -1.524305 0.0 0 0 255
0.488123 -1.519524 0.0 0 0 255
0.496047 -1.512746 0.0 0 0 255
0.503962 -1.508019 0.0 0 0 255
0.512416 -1.503055 0.0 0 0 255
0.520170 -1.496155 0.0 0 0 255
0.527719 -1.489266 0.0 0 0 255
0.536026 -1.484170 0.0 0 0 255
0.544149 -1.479080 0.0 0 0 255
0.551246 -1.472179 0.0 0 0 255
0.560126 -1.468824 0.0 0 0 255
0.568124 -1.463604 0.0 0 0 255
0.576219 -1.458285 0.0 0 0 255
0.584129 -1.452979 0.0 0 0 255
0.592138 -1.447573 0.0 0 0 255
0.600872 -1.443970 0.0 0 0 255
0.609445 -1.440373 0.0 0 0 255
0.617341 -1.434829 0.0 0 0 255
0.624257 -1.427469 0.0 0 0 255
0.632056 -1.421844 0.0 0 0 255
0.640497 -1.418062 0.0 0 0 255
0.648214 -1.412351 0.0 0 0 255
0.655889 -1.406597 0.0 0 0 255
0.663835 -1.402864 0.0 0 0 255
0.670564 -1.395223 0.0 0 0 255
0.678100 -1.389351 0.0 0 0 255
0.686347 -1.385295 0.0 0 0 255
0.693804 -1.379338 0.0 0 0 255
0.701079 -1.373409 0.0 0 0 255
0.708443 -1.367373 0.0 0 0 255
0.716559 -1.363137 0.0 0 0 255
0.724780 -1.358784 0.0 0 0 255
0.732020 -1.352624 0.0 0 0 255
0.740246 -1.345857 0.0 0 0 255
0.745311 -1.336193 0.0 0 0 255
0.754353 -1.333407 0.0 0 0 255
0.764257 -1.332369 0.0 0 0 255
0.771283 -1.326001 0.0 0 0 255
0.779279 -1.321318 0.0 0 0 255
0.787120 -1.316662 0.0 0 0 255
0.795059 -1.311883 0.0 0 0 255
0.802841 -1.307135 0.0 0 0 255
0.810722 -1.302262 0.0 0 0 255
0.817382 -1.295728 0.0 0 0 255
0.825192 -1.290768 0.0 0 0 255
0.832974 -1.285760 0.0 0 0 255
0.839505 -1.279114 0.0 0 0 255
0.848324 -1.275685 0.0 0 0 255
0.855890 -1.270621 0.0 0 0 255
0.863185 -1.265676 0.0 0 0 255
0.870815 -1.260439 0.0 0 0 255
0.878292 -1.255240 0.0 0 0 255
0.885856 -1.249913 0.0 0 0 255
0.893271 -1.244625 0.0 0 0 255
0.900773 -1.239207 0.0 0 0 255
0.907056 -1.232132 0.0 0 0 255
0.914362 -1.226720 0.0 0 0 255
0.922960 -1.222771 0.0 0 0 255
0.931427 -1.218852 0.0 0 0 255
0.932651 -1.205296 0.0 0 0 255
0.941033 -1.201305 0.0 0 0 255
0.950758 -1.198732 0.0 0 0 255
0.955477 -1.189849 0.0 0 0 255
0.961270 -1.182597 0.0 0 0 255
0.962041 -1.169048 0.0 0 0 255
0.964800 -1.158976 0.0 255 255 255
0.979516 -1.162303 0.0 0 0 255
0.996902 -1.168539 0.0 0 0 255
1.002524 -1.161078 0.0 0 0 255
1.011150 -1.158887 0.0 0 0 255
1.023428 -1.158754 0.0 0 0 255
1.030077 -1.152848 0.0 0 0 255
1.036912 -1.146704 0.0 0 0 255
1.045170 -1.141895 0.0 0 0 255
1.054656 -1.138598 0.0 0 0 255
1.061514 -1.132206 0.0 0 0 255
1.069603 -1.127327 0.0 0 0 255
1.076391 -1.120847 0.0 0 0 255
1.081748 -1.112891 0.0 0 0 255
1.089747 -1.107866 0.0 0 0 255
1.100652 -1.105515 0.0 0 0 255
1.107203 -1.098955 0.0 0 0 255
1.115249 -1.093647 0.0 0 0 255
1.123167 -1.088390 0.0 0 0 255
1.131163 -1.082971 0.0 0 0 255
1.139137 -1.077492 0.0 0 0 255
1.146984 -1.072067 0.0 0 0 255
1.153132 -1.065452 0.0 0 0 255
1.159547 -1.058467 0.0 0 0 255
1.167302 -1.052896 0.0 0 0 255
1.176627 -1.048487 0.0 0 0 255
1.184340 -1.042796 0.0 0 0 255
1.192124 -1.036937 0.0 0 0 255
1.201301 -1.032440 0.0 0 0 255
1.210565 -1.027753 0.0 0 0 255
1.219816 -1.022992 0.0 0 0 255
1.227414 -1.017001 0.0 0 0 255
1.236630 -1.012102 0.0 0 0 255
1.242625 -1.004733 0.0 0 0 255
1.248670 -0.997210 0.0 0 0 255
1.257716 -0.992247 0.0 0 0 255
1.268420 -0.988320 0.0 0 0 255
1.275951 -0.981859 0.0 0 0 255
1.283077 -0.975837 0.0 0 0 255
1.290546 -0.969272 0.0 0 0 255
1.297983 -0.962650 0.0 0 0 255
1.308523 -0.958463 0.0 0 0 255
1.317529 -0.952887 0.0 0 0 255
1.323170 -0.945038 0.0 0 0 255
1.335392 -0.941639 0.0 0 0 255
1.342608 -0.934827 0.0 0 0 255
1.349877 -0.927835 0.0 0 0 255
1.357705 -0.923472 0.0 0 0 255
1.368240 -0.918598 0.0 0 0 255
1.377009 -0.912660 0.0 0 0 255
1.385845 -0.906516 0.0 0 0 255
1.394569 -0.900431 0.0 0 0 255
1.403355 -0.894142 0.0 0 0 255
1.412117 -0.887778 0.0 0 0 255
1.422468 -0.882531 0.0 0 0 255
1.432890 -0.877055 0.0 0 0 255
1.439789 -0.869558 0.0 0 0 255
1.448452 -0.862892 0.0 0 0 255
1.457087 -0.856153 0.0 0 0 255
1.467341 -0.850485 0.0 0 0 255
1.475923 -0.843594 0.0 0 0 255
1.484396 -0.836769 0.0 0 0 255
1.494668 -0.830702 0.0 0 0 255
1.504840 -0.824689 0.0 0 0 255
1.513314 -0.817485 0.0 0 0 255
1.521522 -0.810647 0.0 0 0 255
1.528084 -0.802517 0.0 0 0 255
1.540008 -0.796952 0.0 0 0 255
1.553626 -0.792326 0.0 0 0 255
1.563746 -0.785621 0.0 0 0 255
1.572048 -0.777934 0.0 0 0 255
1.579648 -0.771542 0.0 0 0 255
1.589613 -0.764739 0.0 0 0 255
1.599408 -0.758152 0.0 0 0 255
1.609394 -0.751017 0.0 0 0 255
1.621100 -0.744776 0.0 0 0 255
