ply
format ascii 1.0
element vertex 856
property float x
property float y
property float z
property uchar red
property uchar green
property uchar blue
end_header
0.478044 -0.043292 0.0 255 0 0
0.478297 -0.040403 0.0 255 0 0
0.478539 -0.037422 0.0 255 0 0
0.477759 -0.034459 0.0 255 0 0
0.477955 -0.031618 0.0 255 0 0
0.478138 -0.028731 0.0 255 0 0
0.478300 -0.025888 0.0 255 0 0
0.478454 -0.022861 0.0 255 0 0
0.477582 -0.019975 0.0 255 0 0
0.476695 -0.017055 0.0 255 0 0
0.476788 -0.014221 0.0 255 0 0
0.476865 -0.011340 0.0 255 0 0
0.476927 -0.008368 0.0 255 0 0
0.476968 -0.005488 0.0 255 0 0
0.476993 -0.002607 0.0 255 0 0
0.478000 0.000229 0.0 255 0 0
0.477990 0.003116 0.0 255 0 0
0.477961 0.006095 0.0 255 0 0
0.477916 0.008982 0.0 255 0 0
0.477854 0.011822 0.0 255 0 0
0.478773 0.014739 0.0 255 0 0
0.478675 0.017631 0.0 255 0 0
0.479555 0.020656 0.0 255 0 0
0.479422 0.023552 0.0 255 0 0
0.479273 0.026402 0.0 255 0 0
0.480103 0.029357 0.0 255 0 0
0.480918 0.032277 0.0 255 0 0
0.481742 0.034839 0.0 255 0 0
0.482520 0.037826 0.0 255 0 0
0.482286 0.040694 0.0 255 0 0
0.483015 0.043835 0.0 255 0 0
0.483741 0.046801 0.0 255 0 0
0.484445 0.049825 0.0 255 0 0
0.485129 0.052859 0.0 255 0 0
0.485783 0.055995 0.0 255 0 0
0.486429 0.059049 0.0 255 0 0
0.488119 0.061677 0.0 255 0 0
0.488716 0.064849 0.0 255 0 0
0.490297 0.068075 0.0 255 0 0
0.490873 0.071131 0.0 255 0 0
0.491423 0.074244 0.0 255 0 0
0.492927 0.077617 0.0 255 0 0
0.493436 0.080754 0.0 255 0 0
0.495007 0.083498 0.0 255 0 0
0.496439 0.086974 0.0 255 0 0
0.497881 0.090280 0.0 255 0 0
0.499292 0.093655 0.0 255 0 0
0.500690 0.097002 0.0 255 0 0
0.502028 0.100560 0.0 255 0 0
0.503489 0.103416 0.0 255 0 0
0.504812 0.106869 0.0 255 0 0
0.506090 0.110440 0.0 255 0 0
0.507365 0.113933 0.0 255 0 0
0.508628 0.117396 0.0 255 0 0
0.511906 0.120948 0.0 255 0 0
0.515053 0.124980 0.0 255 0 0
0.516242 0.128523 0.0 255 0 0
0.519446 0.132180 0.0 255 0 0
0.520574 0.135820 0.0 255 0 0
0.523621 0.139945 0.0 255 0 0
0.526583 0.144313 0.0 255 0 0
0.529724 0.147962 0.0 255 0 0
0.532666 0.152258 0.0 255 0 0
0.535546 0.156698 0.0 255 0 0
0.540524 0.161028 0.0 255 0 0
0.543320 0.165611 0.0 255 0 0
0.548235 0.170044 0.0 255 0 0
0.551011 0.174559 0.0 255 0 0
0.553718 0.179222 0.0 255 0 0
0.560434 0.184427 0.0 255 0 0
0.566894 0.190356 0.0 255 0 0
0.573471 0.195874 0.0 255 0 0
0.577963 0.201252 0.0 255 0 0
0.584455 0.206911 0.0 255 0 0
0.592601 0.213832 0.0 255 0 0
0.598997 0.219651 0.0 255 0 0
0.597659 0.223265 0.0 255 0 0
0.568365 0.221499 0.0 255 0 0
0.567016 0.224928 0.0 255 0 0
0.565648 0.228348 0.0 255 0 0
0.564280 0.231707 0.0 255 255 255
0.567497 0.244685 0.0 255 255 255
6.355982 3.027060 0.0 255 255 255
6.365797 3.080554 0.0 255 255 255
6.311178 3.101299 0.0 255 255 255
6.278012 3.132222 0.0 255 255 255
6.245007 3.162259 0.0 255 255 255
6.211567 3.192600 0.0 255 255 255
6.177364 3.223849 0.0 255 255 255
6.143638 3.253616 0.0 255 255 255
6.110099 3.282497 0.0 255 255 255
6.083135 3.315517 0.0 255 255 255
6.014780 3.421816 0.0 255 255 255
5.716821 3.298174 0.0 0 0 255
5.861867 3.430712 0.0 255 255 255
5.916715 3.510966 0.0 255 255 255
5.881689 3.538394 0.0 255 255 255
5.840059 3.560801 0.0 255 255 255
5.804840 3.587592 0.0 255 255 255
5.775588 3.619453 0.0 255 255 255
5.753619 3.654274 0.0 255 255 255
5.725074 3.684073 0.0 255 255 255
5.450596 3.650289 0.0 0 0 255
5.389077 3.655679 0.0 255 255 255
5.333930 3.665511 0.0 255 255 255
5.330682 3.712390 0.0 255 255 255
5.340846 3.767580 0.0 0 0 255
5.396100 3.855584 0.0 255 255 255
5.457350 3.948547 0.0 255 255 255
5.445156 3.992466 0.0 255 255 255
5.403317 4.062237 0.0 255 255 255
5.372708 4.089440 0.0 255 255 255
5.346720 4.123359 0.0 255 255 255
5.328427 4.159984 0.0 255 255 255
5.303201 4.192095 0.0 255 255 255
5.265290 4.214055 0.0 255 255 255
5.238931 4.246780 0.0 255 255 255
5.206998 4.273273 0.0 255 255 255
5.175350 4.299039 0.0 255 255 255
5.149294 4.330214 0.0 255 255 255
5.101822 4.398308 0.0 255 255 255
5.075593 4.428549 0.0 255 255 255
5.060742 4.469720 0.0 255 255 255
5.032786 4.501174 0.0 255 255 255
4.987721 4.515377 0.0 255 255 255
4.954892 4.539542 0.0 255 255 255
4.939112 4.580269 0.0 255 255 255
4.916309 4.616431 0.0 255 255 255
4.826568 4.698716 0.0 255 255 255
4.813835 4.746009 0.0 255 255 255
4.796863 4.785841 0.0 255 255 255
4.762238 4.809045 0.0 255 255 255
4.733574 4.837262 0.0 255 255 255
4.708426 4.872874 0.0 255 255 255
4.695949 4.918136 0.0 255 255 255
4.616758 4.894030 0.0 255 255 255
4.538489 4.868722 0.0 255 255 255
4.502177 4.891452 0.0 0 0 255
4.478403 4.924048 0.0 0 0 255
4.496699 5.004566 0.0 255 255 255
4.508873 5.079501 0.0 255 255 255
4.508776 5.143592 0.0 255 255 255
4.452008 5.203338 0.0 255 255 255
4.398074 5.269861 0.0 255 255 255
4.376339 5.308678 0.0 255 255 255
4.354817 5.346998 0.0 255 255 255
4.307395 5.354506 0.0 255 255 255
4.224185 5.318602 0.0 255 255 255
4.103332 5.362105 0.0 0 0 255
4.156640 5.502468 0.0 255 255 255
4.156811 5.572363 0.0 255 255 255
4.137308 5.616694 0.0 255 255 255
4.113269 5.654121 0.0 255 255 255
4.057446 5.723756 0.0 255 255 255
3.997662 5.785129 0.0 255 255 255
3.974490 5.830143 0.0 255 255 255
3.948706 5.866933 0.0 255 255 255
3.922048 5.904006 0.0 255 255 255
3.895085 5.940970 0.0 255 255 255
3.816071 6.058317 0.0 255 255 255
3.779416 6.081251 0.0 255 255 255
3.749802 6.118330 0.0 255 255 255
3.729332 6.168253 0.0 255 255 255
3.624386 6.249000 0.0 255 255 255
3.586583 6.270773 0.0 255 255 255
3.538390 6.362248 0.0 255 255 255
3.482865 6.447421 0.0 255 255 255
3.447615 6.475403 0.0 255 255 255
3.397908 6.474532 0.0 255 255 255
3.300050 6.480097 0.0 255 255 255
3.253672 6.485611 0.0 0 0 255
3.211527 6.497661 0.0 0 0 255
3.187839 6.553825 0.0 0 0 255
3.100163 6.675222 0.0 0 0 255
3.064516 6.709256 0.0 0 0 255
2.993595 6.767450 0.0 255 255 255
2.948082 6.891940 0.0 0 0 255
2.912600 6.924370 0.0 0 0 255
2.806759 7.028281 0.0 0 0 255
2.784707 7.097238 0.0 0 0 255
2.745358 7.121126 0.0 0 0 255
2.716455 7.174988 0.0 0 0 255
2.687002 7.228760 0.0 0 0 255
2.603485 7.276253 0.0 0 0 255
2.536943 7.367441 0.0 0 0 255
2.513579 7.443027 0.0 0 0 255
2.393812 7.541181 0.0 0 0 255
2.274301 7.644876 0.0 255 255 255
2.146861 7.723163 0.0 255 255 255
2.112745 7.782314 0.0 255 255 255
2.074440 7.833997 0.0 255 255 255
2.068277 7.967939 0.0 0 0 255
2.043667 8.073352 0.0 255 255 255
1.951915 8.128938 0.0 0 0 255
1.866787 8.206349 0.0 255 255 255
1.834455 8.295589 0.0 0 0 255
1.796146 8.369436 0.0 0 0 255
1.752098 8.411458 0.0 0 0 255
1.708403 8.453090 0.0 0 0 255
1.561978 8.530170 0.0 255 255 255
0.543696 3.829598 0.0 255 255 255
1.267792 25.360331 0.0 255 255 255
0.951051 25.037944 0.0 255 255 255
-4.688339 20.084045 0.0 255 255 255
-4.828359 20.116667 0.0 255 255 255
-5.158026 19.902471 0.0 255 255 255
-5.820877 19.518525 0.0 0 0 255
-5.868696 19.253436 0.0 255 255 255
-6.021421 18.937763 0.0 255 255 255
-4.689340 11.106630 0.0 0 0 255
-4.657462 10.850664 0.0 0 0 255
-4.630126 10.609699 0.0 0 0 255
-4.673636 10.538117 0.0 255 255 255
-4.222855 8.523241 0.0 255 255 255
-4.249100 8.447549 0.0 255 255 255
-4.328325 8.479151 0.0 0 0 255
-4.401546 8.495470 0.0 255 255 255
-4.414746 8.398343 0.0 255 255 255
-4.390094 8.230350 0.0 255 255 255
-4.259674 7.755146 0.0 255 255 255
-4.275292 7.673365 0.0 255 255 255
-4.384037 7.547066 0.0 255 255 255
-4.116151 6.971551 0.0 0 0 255
-4.096543 6.843604 0.0 0 0 255
-4.070759 6.709697 0.0 0 0 255
-4.069306 6.616840 0.0 0 0 255
-4.066882 6.524248 0.0 0 0 255
-4.077535 6.451444 0.0 255 255 255
-4.060337 6.339120 0.0 255 255 255
-4.010851 6.180655 0.0 0 0 255
-3.977776 6.049371 0.0 0 0 255
-3.956012 5.939063 0.0 255 255 255
-3.915738 5.802327 0.0 255 255 255
-3.905006 5.712909 0.0 255 255 255
-3.941082 5.688081 0.0 0 0 255
-3.956445 5.638358 0.0 0 0 255
-3.939441 5.542635 0.0 0 0 255
-3.912088 5.434334 0.0 0 0 255
-3.878350 5.320476 0.0 0 0 255
-3.853400 5.219717 0.0 255 255 255
-3.846035 5.145463 0.0 255 255 255
-3.825391 5.050869 0.0 255 255 255
-3.826142 4.989948 0.0 255 255 255
-3.831675 4.935157 0.0 0 0 255
-3.831283 4.874554 0.0 0 0 255
-3.830769 4.813763 0.0 0 0 255
-3.834670 4.749118 0.0 0 0 255
-3.845404 4.647353 0.0 255 255 255
-3.750115 4.476856 0.0 255 255 255
-3.776661 4.454484 0.0 0 0 255
-3.747436 4.363740 0.0 0 0 255
-3.752319 4.317234 0.0 0 0 255
-3.762475 4.276470 0.0 0 0 255
-3.755903 4.218186 0.0 0 0 255
-3.743823 4.153824 0.0 0 0 255
-3.736496 4.095673 0.0 0 0 255
-3.718515 4.025301 0.0 0 0 255
-3.688123 3.944331 0.0 0 0 255
-3.667517 3.875850 0.0 255 255 255
-3.657654 3.818967 0.0 255 255 255
-3.669156 3.785667 0.0 0 0 255
-3.669547 3.740591 0.0 0 0 255
-3.658255 3.684296 0.0 0 0 255
-3.664124 3.644505 0.0 0 0 255
-3.674660 3.611091 0.0 0 0 255
-3.661626 3.555743 0.0 0 0 255
-3.636850 3.489259 0.0 0 0 255
-3.622694 3.434553 0.0 0 0 255
-3.602503 3.374325 0.0 255 255 255
-3.596965 3.321544 0.0 255 255 255
-3.610732 3.294717 0.0 0 0 255
-3.624626 3.267490 0.0 0 0 255
-3.609068 3.212919 0.0 0 0 255
-3.592361 3.159367 0.0 0 0 255
-3.581184 3.111375 0.0 255 255 255
-3.593546 3.084821 0.0 0 0 255
-3.593805 3.047542 0.0 0 0 255
-3.588194 3.004540 0.0 0 0 255
-3.575455 2.957317 0.0 255 255 255
-3.555798 2.905644 0.0 0 0 255
-3.554609 2.869038 0.0 0 0 255
-3.552837 2.832894 0.0 0 0 255
-3.557314 2.801482 0.0 0 0 255
-3.555753 2.764532 0.0 0 0 255
-3.553352 2.728386 0.0 0 0 255
-3.550644 2.692371 0.0 0 0 255
-3.540969 2.652040 0.0 0 0 255
-3.544060 2.621088 0.0 0 0 255
-3.547404 2.589515 0.0 255 255 255
-3.543507 2.554013 0.0 0 0 255
-3.539074 2.518986 0.0 0 0 255
-3.541134 2.488363 0.0 0 0 255
-3.536146 2.453587 0.0 0 0 255
-3.544298 2.427667 0.0 255 255 255
-3.532847 2.387612 0.0 0 0 255
-3.520580 2.348476 0.0 0 0 255
-3.514656 2.313970 0.0 0 0 255
-3.514934 2.284317 0.0 0 0 255
-3.515200 2.254406 0.0 0 0 255
-3.515016 2.224918 0.0 0 0 255
-3.515453 2.194157 0.0 0 0 255
-3.501188 2.156439 0.0 0 0 255
-3.482193 2.110810 0.0 0 0 255
-3.474277 2.077427 0.0 0 0 255
-3.476230 2.050640 0.0 0 0 255
-3.488553 2.029604 0.0 0 0 255
-3.497276 2.006510 0.0 0 0 255
-3.502180 1.981745 0.0 0 0 255
-3.493689 1.947854 0.0 0 0 255
-3.487677 1.917422 0.0 0 0 255
-3.488645 1.890602 0.0 0 0 255
-3.485710 1.862291 0.0 0 0 255
-3.482739 1.833747 0.0 0 0 255
-3.483444 1.806487 0.0 0 0 255
-3.480045 1.778132 0.0 0 0 255
-3.472858 1.748086 0.0 0 0 255
-3.468851 1.720308 0.0 0 0 255
-3.471991 1.695812 0.0 0 0 255
-3.456778 1.663003 0.0 0 0 255
-3.449153 1.632544 0.0 255 255 255
-3.447920 1.606942 0.0 255 255 255
-3.461200 1.587753 0.0 0 0 255
-3.466929 1.565510 0.0 0 0 255
-3.465356 1.539666 0.0 0 0 255
-3.456267 1.510696 0.0 0 0 255
-3.454588 1.484394 0.0 0 0 255
-3.459807 1.461942 0.0 0 0 255
-3.464742 1.439814 0.0 0 0 255
-3.465970 1.415834 0.0 0 0 255
-3.466899 1.392230 0.0 0 0 255
-3.464477 1.365860 0.0 0 0 255
-3.461346 1.340907 0.0 0 0 255
-3.450687 1.312868 0.0 0 0 255
-3.443443 1.286731 0.0 0 0 255
-3.439887 1.261775 0.0 0 0 255
-3.439916 1.238270 0.0 0 0 255
-3.436251 1.212812 0.0 0 0 255
-3.428395 1.186799 0.0 0 0 255
-3.424024 1.162546 0.0 0 0 255
-3.419598 1.138053 0.0 255 255 255
-3.422500 1.116464 0.0 0 0 255
-3.425372 1.094552 0.0 0 0 255
-3.420672 1.069607 0.0 0 0 255
-3.423246 1.047754 0.0 0 0 255
-3.425582 1.026238 0.0 0 0 255
-3.435555 1.006658 0.0 0 0 255
-3.441573 0.985887 0.0 0 0 255
-3.428389 0.959036 0.0 0 0 255
-3.414827 0.933038 0.0 0 0 255
-3.416448 0.911690 0.0 0 0 255
-3.418022 0.890029 0.0 0 0 255
-3.419374 0.868715 0.0 0 0 255
-3.420676 0.847083 0.0 0 0 255
-3.422001 0.824810 0.0 0 0 255
-3.426919 0.804130 0.0 0 0 255
-3.424737 0.778025 0.0 0 0 255
-3.417584 0.755063 0.0 0 0 255
-3.418172 0.733566 0.0 0 0 255
-3.406875 0.709648 0.0 0 0 255
-3.395351 0.686214 0.0 0 0 255
-3.395508 0.664923 0.0 0 0 255
-3.391725 0.642265 0.0 0 0 255
-3.387674 0.620324 0.0 255 255 255
-3.395240 0.600872 0.0 0 0 255
-3.386979 0.578332 0.0 0 0 255
-3.378676 0.555272 0.0 255 255 255
-3.378017 0.534228 0.0 255 255 255
-3.377228 0.513212 0.0 255 255 255
-3.376260 0.492555 0.0 255 255 255
-3.375348 0.470626 0.0 255 255 255
-3.374121 0.450024 0.0 255 255 255
-3.380745 0.430145 0.0 0 0 255
-3.383243 0.410040 0.0 0 0 255
-3.381684 0.389139 0.0 0 0 255
-3.380066 0.367628 0.0 0 0 255
-3.382225 0.347204 0.0 0 0 255
-3.376267 0.326323 0.0 0 0 255
-3.374192 0.305567 0.0 0 0 255
-3.376031 0.284532 0.0 0 0 255
-3.377688 0.264133 0.0 0 0 255
-3.379222 0.243731 0.0 0 0 255
-3.376620 0.223375 0.0 0 0 255
-3.381958 0.202240 0.0 0 0 255
-3.379106 0.181923 0.0 0 0 255
-3.380144 0.161508 0.0 0 0 255
-3.377048 0.141245 0.0 0 0 255
-3.373876 0.119734 0.0 0 0 255
-3.378526 0.099794 0.0 0 0 255
-3.375069 0.079290 0.0 0 0 255
-3.379480 0.059296 0.0 0 0 255
-3.375788 0.037869 0.0 0 0 255
-3.375953 0.017800 0.0 0 0 255
-3.383999 -0.002593 0.0 0 0 255
-3.375922 -0.022980 0.0 0 0 255
-3.375726 -0.043047 0.0 0 0 255
-3.375386 -0.064404 0.0 0 0 255
-3.370944 -0.084368 0.0 0 0 255
-3.370373 -0.104729 0.0 0 0 255
-3.365694 -0.124614 0.0 0 0 255
-3.368834 -0.146079 0.0 0 0 255
-3.363911 -0.165906 0.0 0 0 255
-3.362848 -0.186223 0.0 0 0 255
-3.365654 -0.206772 0.0 0 0 255
-3.368291 -0.228015 0.0 0 0 255
-3.358874 -0.247768 0.0 0 0 255
-3.357342 -0.267725 0.0 0 0 255
-3.359649 -0.288343 0.0 0 0 255
-3.353804 -0.308909 0.0 0 0 255
-3.351877 -0.329156 0.0 0 0 255
-3.353840 -0.349491 0.0 0 0 255
-3.351667 -0.369743 0.0 0 0 255
-3.353272 -0.391083 0.0 0 0 255
-3.346878 -0.410844 0.0 0 0 255
-3.348344 -0.431244 0.0 0 0 255
-3.353607 -0.452525 0.0 0 0 255
-3.346760 -0.472859 0.0 0 0 255
-3.339886 -0.492483 0.0 0 0 255
-3.344758 -0.513857 0.0 0 0 255
-3.345594 -0.534362 0.0 0 0 255
-3.346251 -0.555216 0.0 0 0 255
-3.346669 -0.576735 0.0 0 0 255
-3.343124 -0.596940 0.0 0 0 255
-3.335583 -0.616076 0.0 0 0 255
-3.331802 -0.636208 0.0 0 0 255
-3.331696 -0.657736 0.0 0 0 255
-3.331582 -0.678648 0.0 0 0 255
-3.327490 -0.698435 0.0 0 0 255
-3.331030 -0.720212 0.0 0 0 255
-3.330380 -0.741829 0.0 0 0 255
-3.318042 -0.760140 0.0 0 0 255
-3.309496 -0.779252 0.0 0 0 255
-3.304805 -0.798912 0.0 0 0 255
-3.299685 -0.819805 0.0 255 255 255
-3.298629 -0.840393 0.0 255 255 255
-3.301233 -0.862325 0.0 0 0 255
-3.307641 -0.885036 0.0 0 0 255
-3.305833 -0.907003 0.0 0 0 255
-3.308085 -0.928802 0.0 0 0 255
-3.313947 -0.952081 0.0 0 0 255
-3.315906 -0.974013 0.0 0 0 255
-3.317337 -0.997281 0.0 0 0 255
-3.322821 -1.020507 0.0 0 0 255
-3.324231 -1.042949 0.0 0 0 255
-3.325489 -1.065451 0.0 0 0 255
-3.326701 -1.087687 0.0 0 0 255
-3.323547 -1.109979 0.0 0 0 255
-3.320676 -1.131006 0.0 0 0 255
-3.322336 -1.150800 0.0 0 0 255
-3.319096 -1.172179 0.0 0 0 255
-3.315833 -1.193244 0.0 0 0 255
-3.316077 -1.216000 0.0 0 0 255
-3.315928 -1.239445 0.0 0 0 255
-3.312119 -1.260875 0.0 0 0 255
-3.308174 -1.282299 0.0 0 0 255
-3.304213 -1.303410 0.0 0 0 255
-3.303322 -1.327277 0.0 0 0 255
-3.302781 -1.349912 0.0 0 0 255
-3.294567 -1.369838 0.0 0 0 255
-3.293734 -1.392513 0.0 0 0 255
-3.288532 -1.414905 0.0 0 0 255
-3.287393 -1.437634 0.0 0 0 255
-3.282304 -1.459091 0.0 0 0 255
-3.277218 -1.480223 0.0 0 0 255
-3.278692 -1.505936 0.0 0 0 255
-3.280556 -1.530474 0.0 0 0 255
-3.271254 -1.550256 0.0 0 0 255
-3.283456 -1.580397 0.0 0 0 255
-3.284322 -1.606102 0.0 0 0 255
-3.281729 -1.629464 0.0 0 0 255
-3.282700 -1.654344 0.0 0 0 255
-3.279769 -1.677787 0.0 0 0 255
-3.283451 -1.705565 0.0 0 0 255
-3.283704 -1.730964 0.0 0 0 255
-3.280410 -1.754226 0.0 0 0 255
-3.276786 -1.777824 0.0 0 0 255
-3.276157 -1.803995 0.0 0 0 255
-3.275676 -1.829603 0.0 0 0 255
-3.268045 -1.851328 0.0 0 0 255
-3.267391 -1.876694 0.0 0 0 255
-3.265817 -1.903377 0.0 0 0 255
-3.257888 -1.924791 0.0 0 0 255
-3.253068 -1.948541 0.0 0 0 255
-3.248266 -1.971996 0.0 0 0 255
-3.245943 -1.998800 0.0 0 0 255
-3.250971 -2.028648 0.0 0 0 255
-3.248799 -2.054663 0.0 0 0 255
-3.246631 -2.080414 0.0 0 0 255
-3.246821 -2.109630 0.0 0 0 255
-3.244246 -2.135492 0.0 0 0 255
-3.244598 -2.163927 0.0 0 0 255
-3.244729 -2.192439 0.0 0 0 255
-3.250803 -2.226180 0.0 0 0 255
-3.257016 -2.259456 0.0 0 0 255
-3.253350 -2.285670 0.0 0 0 255
-3.246002 -2.309919 0.0 0 0 255
-3.234787 -2.332444 0.0 0 0 255
-3.230334 -2.359013 0.0 0 0 255
-3.225902 -2.385309 0.0 0 0 255
-3.221040 -2.411944 0.0 0 0 255
-3.212323 -2.436802 0.0 0 0 255
-3.207062 -2.463472 0.0 0 0 255
-3.208149 -2.494770 0.0 0 0 255
-3.218167 -2.533894 0.0 0 0 255
-3.217522 -2.560488 0.0 0 0 255
-3.214460 -2.589910 0.0 0 0 255
-3.211407 -2.619085 0.0 0 0 255
-3.213270 -2.654641 0.0 0 0 255
-3.215848 -2.689086 0.0 0 0 255
-3.211758 -2.718800 0.0 0 0 255
-3.207690 -2.748255 0.0 0 0 255
-3.202322 -2.778981 0.0 0 0 255
-3.203778 -2.813805 0.0 0 0 255
-3.198681 -2.843737 0.0 0 0 255
-3.199284 -2.879062 0.0 0 0 255
-3.199023 -2.915105 0.0 0 0 255
-3.198997 -2.950647 0.0 0 0 255
-3.198945 -2.985988 0.0 0 0 255
-3.198300 -3.021734 0.0 0 0 255
-3.196747 -3.058199 0.0 0 0 255
-3.183968 -3.083013 0.0 0 0 255
-3.171299 -3.107485 0.0 0 0 255
-3.175191 -3.149119 0.0 0 0 255
-3.178087 -3.191517 0.0 0 0 255
-3.169972 -3.222061 0.0 0 0 255
-3.167492 -3.258056 0.0 0 0 255
-3.169921 -3.300209 0.0 0 0 255
-3.171319 -3.343112 0.0 0 0 255
-3.172950 -3.385556 0.0 0 0 255
-3.179617 -3.434011 0.0 0 0 255
-3.180755 -3.476456 0.0 0 0 255
-3.174779 -3.514325 0.0 0 0 255
-3.164486 -3.545071 0.0 0 0 255
-3.164186 -3.588117 0.0 0 0 255
-3.158567 -3.624958 0.0 0 0 255
-3.145997 -3.657004 0.0 0 0 255
-3.139752 -3.693922 0.0 0 0 255
-3.132814 -3.731201 0.0 0 0 255
-3.120794 -3.762073 0.0 255 255 255
-3.121215 -3.803211 0.0 255 255 255
-3.133819 -3.865197 0.0 0 0 255
-3.149294 -3.934914 0.0 0 0 255
-3.160578 -3.997494 0.0 255 255 255
-3.156068 -4.041735 0.0 255 255 255
-3.141765 -4.073088 0.0 0 0 255
-3.135309 -4.118350 0.0 0 0 255
-3.125196 -4.156098 0.0 0 0 255
-3.114349 -4.194163 0.0 0 0 255
-3.108286 -4.238407 0.0 0 0 255
-3.104851 -4.290398 0.0 0 0 255
-3.097906 -4.334808 0.0 0 0 255
-3.103949 -4.399199 0.0 0 0 255
-3.113899 -4.470384 0.0 0 0 255
-3.122237 -4.542442 0.0 255 255 255
-3.126183 -4.607559 0.0 255 255 255
-3.125451 -4.665942 0.0 0 0 255
-3.119269 -4.718103 0.0 255 255 255
-3.102922 -4.757549 0.0 0 0 255
-3.095776 -4.809841 0.0 0 0 255
-3.079998 -4.848417 0.0 0 0 255
-3.066249 -4.894925 0.0 0 0 255
-3.058129 -4.947090 0.0 0 0 255
-3.065687 -5.026938 0.0 0 0 255
-3.072872 -5.106766 0.0 0 0 255
-3.069060 -5.174275 0.0 0 0 255
-3.054417 -5.220042 0.0 0 0 255
-3.026828 -5.245326 0.0 255 255 255
-3.009899 -5.291905 0.0 255 255 255
-2.977887 -5.309984 0.0 255 255 255
-2.953499 -5.341878 0.0 0 0 255
-2.935457 -5.388282 0.0 0 0 255
-2.924252 -5.430743 0.0 0 0 255
-2.901069 -5.470344 0.0 0 0 255
-2.883333 -5.515847 0.0 0 0 255
-2.860951 -5.554499 0.0 0 0 255
-2.853228 -5.621344 0.0 0 0 255
-2.853362 -5.710848 0.0 0 0 255
-2.829962 -5.749241 0.0 0 0 255
-2.826589 -5.831020 0.0 0 0 255
-2.831538 -5.935164 0.0 255 255 255
-2.799036 -5.959400 0.0 255 255 255
-2.762987 -5.976199 0.0 0 0 255
-2.730726 -5.999800 0.0 255 255 255
-2.699248 -6.031561 0.0 255 255 255
-2.666570 -6.054821 0.0 255 255 255
-2.564522 -6.124772 0.0 255 255 255
-3.378080 -8.943275 0.0 255 255 255
-3.279506 -8.843498 0.0 255 255 255
-3.188773 -8.766032 0.0 255 255 255
-3.130400 -8.770059 0.0 255 255 255
-3.066791 -8.758607 0.0 255 255 255
-2.999078 -8.731286 0.0 255 255 255
-2.900411 -8.621185 0.0 255 255 255
-2.796489 -8.478728 0.0 0 0 255
-2.720623 -8.419342 0.0 0 0 255
-2.651224 -8.382737 0.0 0 0 255
-2.593441 -8.375672 0.0 255 255 255
-2.522718 -8.322038 0.0 0 0 255
-2.447292 -8.261127 0.0 0 0 255
-2.387007 -8.237110 0.0 0 0 255
-2.311044 -8.159012 0.0 0 0 255
-2.231845 -8.064880 0.0 0 0 255
-2.160695 -8.001396 0.0 255 255 255
-2.093973 -7.944680 0.0 0 0 255
-2.018472 -7.881641 0.0 255 255 255
-1.949522 -7.808308 0.0 255 255 255
-1.890974 -7.773301 0.0 255 255 255
-1.849860 -7.816076 0.0 255 255 255
-1.816990 -7.889472 0.0 0 0 255
-1.770059 -7.900133 0.0 0 0 255
-1.708130 -7.856455 0.0 0 0 255
-1.646532 -7.796022 0.0 0 0 255
-1.589775 -7.758803 0.0 0 0 255
-1.532709 -7.713190 0.0 0 0 255
-1.474822 -7.675595 0.0 0 0 255
-1.418928 -7.629171 0.0 0 0 255
-1.369987 -7.621855 0.0 0 0 255
-1.322471 -7.630243 0.0 0 0 255
-1.264489 -7.567077 0.0 0 0 255
-1.211131 -7.527187 0.0 0 0 255
-1.162986 -7.526681 0.0 0 0 255
-1.112804 -7.501915 0.0 0 0 255
-1.062555 -7.468796 0.0 0 0 255
-0.736319 -5.712743 0.0 255 255 255
-0.697781 -5.693400 0.0 255 255 255
-0.660601 -5.673672 0.0 255 255 255
-0.623360 -5.645691 0.0 255 255 255
-0.586756 -5.625483 0.0 255 255 255
-0.549342 -5.605145 0.0 255 255 255
-0.512555 -5.576494 0.0 255 255 255
-0.475972 -5.539589 0.0 255 255 255
-0.439636 -5.526541 0.0 255 255 255
-0.406198 -5.521078 0.0 255 255 255
-0.370685 -5.491503 0.0 255 255 255
-0.335054 -5.453718 0.0 255 255 255
-0.297540 -5.391797 0.0 255 255 255
-0.263395 -5.361534 0.0 255 255 255
-0.230484 -5.339027 0.0 255 255 255
-0.195522 -5.308400 0.0 255 255 255
-0.163222 -5.285480 0.0 255 255 255
-0.130895 -5.270375 0.0 255 255 255
-0.097458 -5.239094 0.0 255 255 255
-0.065508 -5.215589 0.0 255 255 255
-0.034397 -5.199886 0.0 255 255 255
-0.002990 -5.191999 0.0 255 255 255
0.029233 -5.167917 0.0 255 255 255
0.060263 -5.151648 0.0 255 255 255
0.090453 -5.127202 0.0 255 255 255
0.122324 -5.102534 0.0 255 255 255
0.151697 -5.069731 0.0 255 255 255
0.181159 -5.036743 0.0 255 255 255
0.210573 -5.011578 0.0 255 255 255
0.239876 -4.970215 0.0 255 255 255
0.268150 -4.936723 0.0 255 255 255
0.301205 -4.902756 0.0 255 255 255
0.328731 -4.876933 0.0 255 255 255
0.357822 -4.850820 0.0 255 255 255
0.384736 -4.824684 0.0 255 255 255
0.413188 -4.814302 0.0 255 255 255
0.441800 -4.811760 0.0 255 255 255
0.471452 -4.800907 0.0 255 255 255
0.498325 -4.782106 0.0 255 255 255
0.556969 -4.775631 0.0 255 255 255
0.729017 -5.995843 0.0 0 0 255
0.763890 -5.967305 0.0 0 0 255
0.798286 -5.954729 0.0 255 255 255
0.833130 -5.941876 0.0 255 255 255
0.867838 -5.928821 0.0 255 255 255
0.902357 -5.907481 0.0 0 0 255
0.935514 -5.886120 0.0 0 0 255
0.969175 -5.872564 0.0 0 0 255
1.003615 -5.850543 0.0 0 0 255
1.036976 -5.836597 0.0 0 0 255
1.069310 -5.814492 0.0 0 0 255
1.100868 -5.792314 0.0 0 0 255
1.135959 -5.777382 0.0 255 255 255
1.165503 -5.747008 0.0 255 255 255
1.196922 -5.724201 0.0 255 255 255
1.229203 -5.700990 0.0 255 255 255
1.258407 -5.670033 0.0 255 255 255
1.284972 -5.631254 0.0 0 0 255
1.313484 -5.600024 0.0 0 0 255
1.340850 -5.560622 0.0 0 0 255
1.364803 -5.513593 0.0 0 0 255
1.392176 -5.481987 0.0 0 0 255
1.420254 -5.449982 0.0 0 0 255
1.449021 -5.425845 0.0 0 0 255
1.477029 -5.401702 0.0 0 0 255
1.504698 -5.369139 0.0 0 0 255
1.529975 -5.337029 0.0 0 0 255
1.559935 -5.320013 0.0 0 0 255
1.589227 -5.302985 0.0 0 0 255
1.620410 -5.285173 0.0 0 0 255
1.649409 -5.267813 0.0 0 0 255
1.678754 -5.250136 0.0 0 0 255
1.708959 -5.231967 0.0 0 0 255
1.738002 -5.213959 0.0 0 0 255
1.766880 -5.195794 0.0 0 0 255
1.792495 -5.170082 0.0 0 0 255
1.822509 -5.151093 0.0 0 0 255
1.850376 -5.132645 0.0 0 0 255
1.878588 -5.113865 0.0 0 0 255
1.904813 -5.087073 0.0 0 0 255
1.935498 -5.075478 0.0 0 0 255
1.962740 -5.056424 0.0 0 0 255
1.990308 -5.037036 0.0 0 0 255
2.018668 -5.017115 0.0 0 0 255
2.045906 -4.997426 0.0 0 0 255
2.072503 -4.977790 0.0 0 0 255
2.103955 -4.964578 0.0 0 0 255
2.130264 -4.944637 0.0 0 0 255
2.156884 -4.924350 0.0 0 0 255
2.184270 -4.903508 0.0 0 0 255
2.210550 -4.882936 0.0 0 0 255
2.233319 -4.854959 0.0 0 0 255
2.258745 -4.834353 0.0 0 0 255
2.285862 -4.812735 0.0 0 0 255
2.314431 -4.799062 0.0 0 0 255
2.336332 -4.770628 0.0 0 0 255
2.362457 -4.748812 0.0 0 0 255
2.391099 -4.734455 0.0 0 0 255
2.415544 -4.713042 0.0 0 0 255
2.440278 -4.691267 0.0 0 0 255
2.465733 -4.668893 0.0 0 0 255
2.490104 -4.646866 0.0 0 0 255
2.510042 -4.617924 0.0 0 0 255
2.535344 -4.594947 0.0 0 0 255
2.558707 -4.572813 0.0 0 0 255
2.578386 -4.543358 0.0 0 0 255
2.605783 -4.527700 0.0 0 0 255
2.629910 -4.504468 0.0 0 0 255
2.652996 -4.481615 0.0 0 0 255
2.675475 -4.458905 0.0 0 0 255
2.703632 -4.441889 0.0 0 0 255
2.725789 -4.418930 0.0 0 0 255
2.752432 -4.402384 0.0 0 0 255
2.775526 -4.378392 0.0 0 0 255
2.801923 -4.361546 0.0 0 0 255
2.827801 -4.344813 0.0 0 0 255
2.853987 -4.327657 0.0 0 0 255
2.876458 -4.303135 0.0 0 0 255
2.902399 -4.285681 0.0 0 0 255
2.928226 -4.268076 0.0 0 0 255
2.954770 -4.249742 0.0 0 0 255
2.975780 -4.225276 0.0 0 0 255
3.000838 -4.207517 0.0 0 0 255
3.027405 -4.188441 0.0 0 0 255
3.047525 -4.163915 0.0 0 0 255
3.082142 -4.158290 0.0 0 0 255
3.107999 -4.139000 0.0 0 0 255
3.123252 -4.107419 0.0 0 0 255
3.147614 -4.088780 0.0 0 0 255
3.183267 -4.081395 0.0 0 0 255
3.207466 -4.062406 0.0 0 0 255
3.221956 -4.030459 0.0 0 0 255
3.250891 -4.017454 0.0 0 0 255
3.271171 -3.990619 0.0 0 0 255
3.294836 -3.971102 0.0 0 0 255
3.318764 -3.951127 0.0 0 0 255
3.348501 -3.936466 0.0 0 0 255
3.372219 -3.916167 0.0 0 0 255
3.390556 -3.889695 0.0 0 0 255
3.420020 -3.874492 0.0 0 0 255
3.443362 -3.853762 0.0 0 0 255
3.466210 -3.833225 0.0 0 0 255
3.490393 -3.811218 0.0 0 0 255
3.518425 -3.796269 0.0 0 0 255
3.541292 -3.774947 0.0 0 0 255
3.564745 -3.752809 0.0 0 0 255
3.592893 -3.736974 0.0 0 0 255
3.615044 -3.715550 0.0 0 0 255
3.637416 -3.693652 0.0 0 0 255
3.660366 -3.670910 0.0 0 0 255
3.682474 -3.648732 0.0 0 0 255
3.709808 -3.632380 0.0 0 0 255
3.609497 -3.448419 0.0 255 255 255
3.641891 -3.437541 0.0 255 255 255
3.692504 -3.442051 0.0 255 255 255
3.707344 -3.414264 0.0 255 255 255
3.716060 -3.381046 0.0 255 255 255
3.918814 -3.478577 0.0 0 0 255
3.945432 -3.460502 0.0 0 0 255
3.999762 -3.422221 0.0 0 0 255
3.023209 -2.545292 0.0 255 255 255
4.080274 -3.363674 0.0 0 0 255
3.196640 -2.528887 0.0 255 255 255
4.238521 -3.241579 0.0 0 0 255
4.341265 -3.116369 0.0 0 0 255
4.399765 -3.117006 0.0 0 0 255
4.425069 -3.094958 0.0 0 0 255
4.443389 -3.068598 0.0 0 0 255
4.475064 -3.050714 0.0 0 0 255
4.500624 -3.027236 0.0 255 255 255
4.518828 -2.999995 0.0 0 0 255
4.543273 -2.977465 0.0 0 0 255
4.568738 -2.953003 0.0 0 0 255
4.610572 -2.902297 0.0 0 0 255
4.690332 -2.833935 0.0 0 0 255
4.721644 -2.812844 0.0 0 0 255
4.745446 -2.788325 0.0 0 0 255
4.768859 -2.764077 0.0 0 0 255
4.793198 -2.737819 0.0 0 0 255
4.846643 -2.691837 0.0 0 0 255
4.930187 -2.621891 0.0 0 0 255
4.990429 -2.575863 0.0 0 0 255
5.041548 -2.563811 0.0 0 0 255
5.071004 -2.540964 0.0 0 0 255
5.130586 -2.492529 0.0 0 0 255
0.592999 -0.251174 0.0 255 0 0
0.581836 -0.241592 0.0 255 0 0
0.574026 -0.234295 0.0 255 0 0
0.566389 -0.226504 0.0 255 0 0
0.558418 -0.219475 0.0 255 0 0
0.552495 -0.212634 0.0 255 0 0
0.548157 -0.207172 0.0 255 0 0
0.543985 -0.201196 0.0 255 0 0
0.539532 -0.195912 0.0 255 0 0
0.535254 -0.190071 0.0 255 0 0
0.532615 -0.185519 0.0 255 0 0
0.529975 -0.180904 0.0 255 0 0
0.525503 -0.175392 0.0 255 0 0
0.522800 -0.170822 0.0 255 0 0
0.520188 -0.165893 0.0 255 0 0
0.517347 -0.161605 0.0 255 0 0
0.514488 -0.157308 0.0 255 0 0
0.511758 -0.152511 0.0 255 0 0
0.508815 -0.148348 0.0 255 0 0
0.507779 -0.144723 0.0 255 0 0
0.506744 -0.141019 0.0 255 0 0
0.503870 -0.136376 0.0 255 0 0
0.502751 -0.132820 0.0 255 0 0
0.499659 -0.128830 0.0 255 0 0
0.498488 -0.125322 0.0 255 0 0
0.497422 -0.121308 0.0 255 0 0
0.496199 -0.117840 0.0 255 0 0
0.494975 -0.114295 0.0 255 0 0
0.494681 -0.111084 0.0 255 0 0
0.492402 -0.107502 0.0 255 0 0
0.491085 -0.104111 0.0 255 0 0
0.490832 -0.100424 0.0 255 0 0
0.489486 -0.096975 0.0 255 0 0
0.489081 -0.093828 0.0 255 0 0
0.487664 -0.090554 0.0 255 0 0
0.487218 -0.087430 0.0 255 0 0
0.485782 -0.084051 0.0 255 0 0
0.485295 -0.080951 0.0 255 0 0
0.484869 -0.077348 0.0 255 0 0
0.483344 -0.074161 0.0 255 0 0
0.482793 -0.071096 0.0 255 0 0
0.482237 -0.067946 0.0 255 0 0
0.482638 -0.065032 0.0 255 0 0
0.482025 -0.062034 0.0 255 0 0
0.481398 -0.059000 0.0 255 0 0
0.479770 -0.055768 0.0 255 0 0
0.479149 -0.052346 0.0 255 0 0
0.478471 -0.049257 0.0 255 0 0
0.478760 -0.046366 0.0 255 0 0
